<?xml version="1.0" standalone="no"?>
<!DOCTYPE svg PUBLIC "-//W3C//DTD SVG 1.1//EN" "http://www.w3.org/Graphics/SVG/1.1/DTD/svg11.dtd" >
<svg xmlns="http://www.w3.org/2000/svg" xmlns:xlink="http://www.w3.org/1999/xlink" version="1.1">
<metadata>
Created by FontForge 20161003 at Mon Nov  6 03:32:29 2017
 By www-data
2000 Albert-Jan Pool, published by Fontshop International for the FontFont library.
</metadata>
<defs>
<font id="DINConReg" horiz-adv-x="354" >
  <font-face 
    font-family="DINConReg"
    font-weight="400"
    font-stretch="normal"
    units-per-em="1000"
    panose-1="2 0 5 6 2 0 0 2 0 4"
    ascent="800"
    descent="-200"
    x-height="509"
    cap-height="712"
    bbox="-101 -209 835 933"
    underline-thickness="77"
    underline-position="-191"
    unicode-range="U+0020-FB02"
  />
<missing-glyph horiz-adv-x="1000" 
 />
    <glyph glyph-name=".notdef" horiz-adv-x="1000" 
 />
    <glyph glyph-name=".null" horiz-adv-x="0" 
 />
    <glyph glyph-name="nonmarkingreturn" horiz-adv-x="194" 
 />
    <glyph glyph-name="space" unicode=" " horiz-adv-x="194" 
 />
    <glyph glyph-name="exclam" unicode="!" horiz-adv-x="227" 
d="M100 187v525h56v-525h-56zM90 0v75h75v-75h-75z" />
    <glyph glyph-name="quotedbl" unicode="&#x22;" horiz-adv-x="352" 
d="M62 529v183h65v-183h-65zM226 529v183h64v-183h-64z" />
    <glyph glyph-name="numbersign" unicode="#" horiz-adv-x="500" 
d="M365 444l-20 -163h73v-51h-81l-29 -230h-54l29 230h-102l-29 -230h-54l29 230h-72v51h79l21 163h-73v50h80l28 218h54l-28 -218h102l28 218h54l-28 -218h72l1 -50h-80zM209 444l-21 -163h102l21 163h-102z" />
    <glyph glyph-name="dollar" unicode="$" horiz-adv-x="404" 
d="M351 186q0 -57 -10 -93.5t-34 -60.5q-30 -30 -81 -36v-110h-53v109q-57 5 -89 37q-12 12 -20 25.5t-13 30.5t-7 39t-2 51h59q0 -42 5.5 -65.5t22.5 -40.5q18 -18 44 -22v298l-32 13q-27 11 -45.5 25.5t-29 35t-15 49t-4.5 68.5q0 46 12 82t37 59q32 30 77 36v90h53v-90
q50 -6 81 -37q26 -26 34.5 -58.5t8.5 -79.5h-59q0 34 -5.5 57t-21.5 41q-16 17 -38 23v-273l33 -13q29 -12 47 -28.5t28 -39.5t13.5 -53t3.5 -69zM292 184q0 32 -3 54.5t-10.5 39t-20 28t-32.5 20.5v-275q25 6 38 21q17 19 22.5 44.5t5.5 67.5zM173 662q-22 -6 -36 -20
q-17 -17 -24 -43t-7 -59q0 -29 2.5 -49.5t10 -35t20.5 -25t34 -19.5v251z" />
    <glyph glyph-name="percent" unicode="%" horiz-adv-x="617" 
d="M252 446q0 -46 -28 -73t-71 -27t-70.5 27t-27.5 73v175q0 46 27.5 72.5t70.5 26.5t71 -26.5t28 -72.5v-175zM562 92q0 -46 -27.5 -73t-70.5 -27t-70.5 27t-27.5 73v174q0 46 27.5 73t70.5 27t70.5 -27t27.5 -73v-174zM208 0h-47l248 712h47zM514 266q0 26 -13 41.5
t-37 15.5t-37 -15.5t-13 -41.5v-174q0 -26 13 -41.5t37 -15.5t37 15.5t13 41.5v174zM203 620q0 26 -13 41.5t-37 15.5t-36.5 -15.5t-12.5 -41.5v-174q0 -26 12.5 -41.5t36.5 -15.5t37 15.5t13 41.5v174z" />
    <glyph glyph-name="ampersand" unicode="&#x26;" horiz-adv-x="486" 
d="M417 0l-55 84q-17 -21 -33.5 -38t-36 -29t-43 -18.5t-53.5 -6.5q-33 0 -62 11.5t-50 33.5t-33.5 54t-12.5 73q0 33 7.5 61t22.5 54.5t38.5 53t55.5 55.5q-26 36 -43 61.5t-27.5 46.5t-15 39.5t-4.5 39.5q0 28 8.5 54t25 46t41.5 31.5t58 11.5q66 0 100 -37.5t34 -96.5
q0 -32 -6 -57t-19.5 -48.5t-34 -47t-49.5 -50.5l132 -199q19 31 31.5 78t15.5 90h54q-5 -61 -22.5 -118t-46.5 -100l87 -132h-64zM191 344q-50 -49 -73.5 -89.5t-23.5 -85.5q0 -25 7 -47.5t21 -40t34 -27.5t46 -10q39 0 70 24t60 62zM285 582q0 38 -22 61.5t-57 23.5
q-21 0 -36 -8t-24.5 -21t-14 -29t-4.5 -32q0 -15 3.5 -29t11.5 -31t22.5 -39t36.5 -53q19 19 35 36.5t26.5 35.5t16.5 38.5t6 46.5z" />
    <glyph glyph-name="quotesingle" unicode="'" horiz-adv-x="189" 
d="M62 529v183h65v-183h-65z" />
    <glyph glyph-name="parenleft" unicode="(" horiz-adv-x="222" 
d="M143 -94q-20 20 -37 40t-28 40q-13 24 -16.5 47.5t-3.5 49.5v546q0 26 3.5 49.5t16.5 47.5q12 23 28.5 41.5t36.5 38.5l38 -38q-15 -15 -29 -29.5t-23 -33.5q-8 -16 -11.5 -36.5t-3.5 -45.5v-534q0 -25 3.5 -45.5t11.5 -36.5q9 -19 23 -33.5t29 -29.5z" />
    <glyph glyph-name="parenright" unicode=")" horiz-adv-x="222" 
d="M164 83q0 -26 -3.5 -49.5t-16.5 -47.5q-11 -20 -28.5 -40t-37.5 -40l-38 38l29.5 29.5t23.5 33.5q8 16 11.5 36.5t3.5 45.5v534q0 25 -3.5 45.5t-11.5 36.5q-9 19 -23.5 33.5l-29.5 29.5l38 38q20 -20 37 -38.5t29 -41.5q13 -24 16.5 -47.5t3.5 -49.5v-546v0z" />
    <glyph glyph-name="asterisk" unicode="*" horiz-adv-x="369" 
d="M296 465l-91 55l2 -127h-45l3 127l-92 -55l-22 40l93 50l-93 50l22 40l92 -55l-3 127h45l-2 -127l91 55l22 -40l-93 -50l93 -50z" />
    <glyph glyph-name="plus" unicode="+" horiz-adv-x="431" 
d="M242 251v-141h-53v141h-140v53h140v140h53v-140h141v-53h-141z" />
    <glyph glyph-name="comma" unicode="," horiz-adv-x="184" 
d="M58 -99v176h69v-125z" />
    <glyph glyph-name="hyphen" unicode="-" horiz-adv-x="301" 
d="M55 251v53h191v-53h-191z" />
    <glyph glyph-name="period" unicode="." horiz-adv-x="199" 
d="M62 0v75h75v-75h-75z" />
    <glyph glyph-name="slash" unicode="/" horiz-adv-x="246" 
d="M59 -74h-57l185 860h57z" />
    <glyph glyph-name="zero" unicode="0" horiz-adv-x="361" 
d="M307 128q0 -37 -9.5 -60.5t-26.5 -40.5q-16 -16 -40.5 -25.5t-50.5 -9.5t-50 9.5t-40 25.5q-17 17 -26.5 40.5t-9.5 60.5v456q0 37 9.5 60.5t26.5 40.5q16 16 40 25.5t50 9.5t50.5 -9.5t40.5 -25.5q17 -17 26.5 -40.5t9.5 -60.5v-456zM251 587q0 42 -21 62.5t-50 20.5
t-49.5 -20.5t-20.5 -62.5v-462q0 -42 20.5 -62.5t49.5 -20.5t50 20.5t21 62.5v462z" />
    <glyph glyph-name="one" unicode="1" horiz-adv-x="361" 
d="M165 0v646l-102 -88v67l102 87h56v-712h-56z" />
    <glyph glyph-name="two" unicode="2" horiz-adv-x="361" 
d="M51 0v47l170 390q13 29 23.5 66.5t10.5 83.5q0 42 -20.5 62.5t-49.5 20.5t-50 -20.5t-21 -62.5v-51h-56v50q0 35 9.5 58.5t26.5 40.5q16 16 40.5 25.5t50.5 9.5t49.5 -9t39.5 -25q17 -17 27 -41t10 -61q0 -41 -12.5 -84.5t-28.5 -80.5l-159 -369h200v-50h-260z" />
    <glyph glyph-name="three" unicode="3" horiz-adv-x="361" 
d="M307 196q0 -36 -1.5 -62.5t-6 -46t-12.5 -33.5t-20 -27q-16 -16 -40.5 -25.5t-50.5 -9.5t-50 9t-40 25q-17 17 -27 40.5t-10 60.5v49h56v-50q0 -42 21 -63t50 -21q31 0 49 21q7 8 12 18.5t8 26.5t4.5 37.5t1.5 52.5q0 34 -1 57t-4 38t-8 25t-12 18q-18 21 -50 21h-41v49
h41q28 0 45 18q14 14 19 39t5 75t-5.5 74.5t-17.5 38.5q-16 19 -46 19q-29 0 -47.5 -20.5t-18.5 -62.5v-51h-56v49q0 37 9 60.5t26 40.5q16 16 38.5 25t48.5 9q55 0 88 -33q10 -10 17 -22.5t11.5 -29.5t6.5 -40t2 -55q0 -52 -5 -77t-15 -44q-14 -23 -40 -38
q12 -7 22.5 -15.5t17.5 -18.5q7 -11 12 -22t8 -27.5t4.5 -40.5t1.5 -61z" />
    <glyph glyph-name="four" unicode="4" horiz-adv-x="361" 
d="M278 124v-124h-56v124h-188v50l180 538h55l-179 -538h132v199h56v-199h50v-50h-50z" />
    <glyph glyph-name="five" unicode="5" horiz-adv-x="361" 
d="M311 227q0 -42 -1.5 -72.5t-6 -53t-12 -39.5t-20.5 -31q-16 -18 -40.5 -28.5t-50.5 -10.5t-50 8.5t-40 24.5q-17 17 -27.5 41t-10.5 61v47h56v-48q0 -46 21 -66.5t51 -20.5q32 0 50 25q7 10 12 22.5t8 30.5t4 44t1 63t-1.5 62.5t-4.5 44t-7.5 30.5t-11.5 22
q-9 13 -22 18.5t-28 5.5q-30 0 -51 -22t-21 -60v-33h-52v420h245v-50h-194v-252q13 20 33 33q22 14 54 14q26 0 46 -10t35 -28q11 -14 18 -30t11 -38t5.5 -52t1.5 -72z" />
    <glyph glyph-name="six" unicode="6" horiz-adv-x="361" 
d="M310 210q0 -41 -1.5 -69t-5.5 -48.5t-11 -34.5t-18 -27q-17 -20 -41.5 -29.5t-52.5 -9.5q-60 0 -93 39q-11 13 -18.5 28t-11.5 35t-5.5 48t-1.5 68q0 60 7 105t22 86l115 311h56l-114 -306q26 21 58 21q50 0 81 -36q10 -11 16.5 -23.5t10.5 -32t6 -49.5t2 -76zM254 210
q0 62 -4 96.5t-20 51.5q-20 21 -50 21q-31 0 -50 -21q-16 -18 -20 -52t-4 -96t4 -95.5t20 -51.5q19 -21 50 -21q30 0 50 21q16 18 20 51.5t4 95.5z" />
    <glyph glyph-name="seven" unicode="7" horiz-adv-x="361" 
d="M124 0h-59l191 662h-154v-116h-55v166h267v-45z" />
    <glyph glyph-name="eight" unicode="8" horiz-adv-x="361" 
d="M310 196q0 -37 -1.5 -63t-6 -45.5t-12 -33.5t-19.5 -27q-16 -17 -40.5 -26t-50.5 -9t-50 9t-40 26q-12 13 -20 27t-12.5 33.5t-6 45.5t-1.5 63t1.5 61t4.5 40t8 26.5t12 21.5q7 10 17 19t23 16q-26 15 -40 38q-5 9 -9 19.5t-6.5 24t-4 32.5t-1.5 45q0 32 2 55t6.5 40.5
t11.5 29.5t18 23q33 33 87 33t87 -33q10 -11 17.5 -23t12 -29.5t6.5 -40.5t2 -55q0 -26 -1 -45t-3.5 -32.5t-6.5 -24t-9 -19.5q-14 -23 -40 -38q13 -7 23 -16t17 -19q7 -11 12 -21.5t8 -26.5t4 -40t1 -61zM254 197q0 34 -1 57t-4 38t-8 25t-12 18q-18 21 -49 21t-49 -21
q-8 -8 -12.5 -18t-7.5 -25t-4 -38t-1 -57q0 -30 1 -51.5t4 -37t8 -26t12 -19.5q18 -21 49 -21t49 21q7 8 12 18.5t8 26t4 37.5t1 52zM249 538q0 49 -5.5 74t-17.5 39q-16 19 -46 19q-29 0 -45 -19q-12 -14 -18 -39t-6 -74t5.5 -75.5t19.5 -40.5q16 -17 44 -17q29 0 45 17
q14 14 19 40.5t5 75.5z" />
    <glyph glyph-name="nine" unicode="9" horiz-adv-x="361" 
d="M310 502q0 -60 -7 -105t-22 -86l-114 -311h-57l115 306q-26 -21 -58 -21q-50 0 -81 36q-10 11 -16.5 23.5t-11 32t-6.5 49.5t-2 76q0 40 1.5 68.5t6 48.5t11.5 34.5t18 27.5q17 20 41.5 29.5t52.5 9.5q60 0 93 -39q11 -14 18 -28.5t11 -35t5.5 -48t1.5 -67.5zM254 502
q0 62 -4 95.5t-20 51.5q-20 21 -50 21q-31 0 -50 -21q-16 -18 -20 -51.5t-4 -95.5t4 -96.5t20 -51.5q19 -21 50 -21q30 0 50 21q16 18 20 52t4 96z" />
    <glyph glyph-name="colon" unicode=":" horiz-adv-x="227" 
d="M90 339v76h75v-76h-75zM90 0v75h75v-75h-75z" />
    <glyph glyph-name="semicolon" unicode=";" horiz-adv-x="227" 
d="M93 -99v176h69v-125zM90 339v76h75v-76h-75z" />
    <glyph glyph-name="less" unicode="&#x3c;" horiz-adv-x="361" 
d="M34 259v49l293 170v-63l-229 -131l229 -131v-63z" />
    <glyph glyph-name="equal" unicode="=" horiz-adv-x="431" 
d="M49 314v53h334v-53h-334zM49 171v53h334v-53h-334z" />
    <glyph glyph-name="greater" unicode="&#x3e;" horiz-adv-x="361" 
d="M34 90v63l229 131l-229 131v63l293 -170v-49z" />
    <glyph glyph-name="question" unicode="?" horiz-adv-x="375" 
d="M332 547q0 -35 -5.5 -60.5t-23.5 -54.5l-58 -93q-22 -34 -22 -74v-78h-56v85q0 23 7 43.5t18 38.5l58 93q17 26 21.5 48.5t4.5 52.5q0 41 -7 62.5t-21 35.5q-20 22 -55 22q-18 0 -31 -5.5t-23 -15.5q-17 -17 -21.5 -40t-4.5 -46h-56q0 38 8 68t31 52q17 17 42 27t55 10
q62 0 98 -37q20 -21 30.5 -50t10.5 -84zM158 0v75h75v-75h-75z" />
    <glyph glyph-name="at" unicode="@" horiz-adv-x="515" 
d="M399 0v41q-5 -8 -13 -17t-15 -14q-26 -18 -59 -18q-26 0 -45 8.5t-35 25.5q-15 16 -23 39.5t-8 61.5v223q0 38 8 61t23 39q16 17 35 25.5t45 8.5q20 0 33 -4t27 -12q6 -4 13.5 -12t12.5 -17v128q0 48 -24.5 72.5t-65.5 24.5h-107q-40 0 -65 -24.5t-25 -72.5v-466
q0 -26 7 -43t20 -29l-39 -38q-26 22 -35 49.5t-9 62.5v466q0 39 11 64t28 42t42 27t57 10h123q32 0 57 -10t42 -27t28 -42t11 -64v-569h-55zM398 351q0 42 -20.5 62.5t-49.5 20.5t-50 -20.5t-21 -62.5v-226q0 -42 21 -62.5t50 -20.5t49.5 20.5t20.5 62.5v226z" />
    <glyph glyph-name="A" unicode="A" horiz-adv-x="379" 
d="M311 0l-39 195h-166l-38 -195h-64l159 712h55l156 -712h-63zM189 606l-71 -358h143z" />
    <glyph glyph-name="B" unicode="B" horiz-adv-x="416" 
d="M363 198q0 -66 -10 -100t-33 -57q-22 -22 -50.5 -31.5t-73.5 -9.5h-127v712h128q44 0 72 -9t49 -32q23 -24 31 -55.5t8 -87.5q0 -38 -7.5 -70.5t-34.5 -59.5q-22 -22 -45 -28q27 -6 49 -28q29 -30 36.5 -68t7.5 -76zM304 198q0 78 -27.5 111.5t-78.5 33.5h-70v-290h70
q25 0 45 6.5t33.5 23t20.5 44.5t7 71zM298 527q0 39 -6.5 64.5t-19.5 40.5t-31.5 21t-42.5 6h-70v-264h70q48 0 74 30t26 102z" />
    <glyph glyph-name="C" unicode="C" horiz-adv-x="399" 
d="M358 163q-1 -43 -12.5 -78.5t-37.5 -58.5q-18 -16 -42 -25t-56 -9q-35 0 -61.5 11t-44.5 31q-17 18 -27 40t-15 57.5t-6.5 89t-1.5 135.5t1.5 135.5t6.5 89t15 57.5t27 40q18 20 44.5 31t61.5 11q34 0 59 -10t43 -28q23 -23 34 -57.5t12 -75.5h-59q0 27 -6 52t-22 42
q-11 11 -25.5 17.5t-35.5 6.5q-22 0 -37 -7t-26 -19q-11 -13 -17.5 -30t-10.5 -47.5t-5 -80t-1 -127.5t1 -127.5t5 -80t10.5 -47.5t17.5 -30q11 -12 26 -19t37 -7q21 0 35.5 6.5t25.5 17.5q16 17 22 42t6 52h59v0z" />
    <glyph glyph-name="D" unicode="D" horiz-adv-x="424" 
d="M371 356q0 -81 -1.5 -133.5t-6.5 -87t-15 -55.5t-27 -39q-18 -19 -44.5 -30t-61.5 -11h-146v712h146q35 0 61.5 -11t44.5 -30q17 -18 27 -39t15 -55.5t6.5 -87t1.5 -133.5zM312 356q0 76 -1 124.5t-5 78.5t-10.5 46t-18.5 29q-11 11 -27.5 18t-37.5 7h-84v-606h84
q21 0 37.5 7t27.5 18q12 13 18.5 29t10.5 46t5 78t1 125z" />
    <glyph glyph-name="E" unicode="E" horiz-adv-x="364" 
d="M69 0v712h248v-53h-189v-276h163v-53h-163v-277h189v-53h-248z" />
    <glyph glyph-name="F" unicode="F" horiz-adv-x="359" 
d="M128 659v-276h163v-53h-163v-330h-59v712h248v-53h-189z" />
    <glyph glyph-name="G" unicode="G" horiz-adv-x="412" 
d="M358 152q0 -40 -12 -70t-32.5 -50t-47 -30t-56.5 -10q-35 0 -61.5 11t-44.5 31q-17 18 -27 40t-15 57.5t-6.5 89t-1.5 135.5t1.5 135.5t6.5 89t15 57.5t27 40q18 20 44.5 31t61.5 11t60 -10.5t43 -28.5q23 -23 34 -57t11 -75h-59q0 21 -4 42.5t-13.5 38t-27 27
t-44.5 10.5q-22 0 -37 -7t-26 -19q-11 -13 -17.5 -30t-10.5 -47.5t-5 -80t-1 -127.5t1 -127.5t5 -80t10.5 -47.5t17.5 -30q11 -12 26 -19t37 -7q38 0 63.5 28t25.5 79v175h-89v50h148v-225v0z" />
    <glyph glyph-name="H" unicode="H" horiz-adv-x="432" 
d="M304 0v335h-176v-335h-59v712h59v-323h176v323h59v-712h-59z" />
    <glyph glyph-name="I" unicode="I" horiz-adv-x="197" 
d="M69 0v712h59v-712h-59z" />
    <glyph glyph-name="J" unicode="J" horiz-adv-x="332" 
d="M271 153q0 -78 -42 -120q-21 -21 -48.5 -31t-59.5 -10q-71 0 -113 50l43 39q12 -17 30 -26.5t40 -9.5q38 0 64.5 27t26.5 81v559h59v-559v0z" />
    <glyph glyph-name="K" unicode="K" horiz-adv-x="409" 
d="M335 0l-138 352l-69 -136v-216h-59v712h59v-387l189 387h63l-146 -294l165 -418h-64z" />
    <glyph glyph-name="L" unicode="L" horiz-adv-x="339" 
d="M69 0v712h59v-659h189v-53h-248z" />
    <glyph glyph-name="M" unicode="M" horiz-adv-x="557" 
d="M429 0v573l-130 -376h-43l-128 364v-561h-59v712h59l150 -419l151 419h59v-712h-59z" />
    <glyph glyph-name="N" unicode="N" horiz-adv-x="454" 
d="M327 0l-199 555v-555h-59v712h59l199 -555l-1 555h59v-712h-58z" />
    <glyph glyph-name="O" unicode="O" horiz-adv-x="421" 
d="M367 356q0 -82 -1.5 -135.5t-6.5 -89t-15 -57.5t-27 -40q-18 -20 -45 -31t-62 -11t-61.5 11t-44.5 31q-17 18 -27 40t-15 57.5t-6.5 89t-1.5 135.5t1.5 135.5t6.5 89t15 57.5t27 40q18 20 44.5 31t61.5 11t62 -11t45 -31q17 -18 27 -40t15 -57.5t6.5 -89t1.5 -135.5z
M308 356q0 78 -1 127.5t-5 80t-10.5 47.5t-17.5 30q-23 26 -64 26q-22 0 -37 -7t-26 -19q-11 -13 -17.5 -30t-10.5 -47.5t-5 -80t-1 -127.5t1 -127.5t5 -80t10.5 -47.5t17.5 -30q11 -12 26 -19t37 -7t37.5 7t26.5 19q11 13 17.5 30t10.5 47.5t5 80t1 127.5z" />
    <glyph glyph-name="P" unicode="P" horiz-adv-x="410" 
d="M363 514q0 -56 -10 -94.5t-29.5 -61.5t-48 -33t-66.5 -10h-81v-315h-59v712h140q32 0 60 -7.5t49 -29t33 -60t12 -101.5zM304 513q0 70 -20 108t-73 38h-83v-291h83q53 0 73 37.5t20 107.5z" />
    <glyph glyph-name="Q" unicode="Q" horiz-adv-x="421" 
d="M360 -26l-56 48q-36 -30 -94 -30q-35 0 -61.5 11t-44.5 31q-17 18 -27 40t-15 57.5t-6.5 89t-1.5 135.5t1.5 135.5t6.5 89t15 57.5t27 40q18 20 44.5 31t61.5 11t62 -11t45 -31q17 -18 27 -40t15 -57.5t6.5 -89t1.5 -135.5q0 -70 -1 -119t-4 -83.5t-9.5 -57t-17.5 -39.5
l55 -47zM308 356q0 79 -1 128.5t-4.5 80t-10.5 47.5t-18 30q-20 25 -64 25q-43 0 -63 -25q-11 -13 -18 -30t-10.5 -47.5t-4.5 -80t-1 -128.5t1 -128.5t4.5 -80t10.5 -47.5t18 -30q20 -25 63 -25q31 0 50 14l-56 46l30 36l54 -45q6 13 10 31.5t6.5 47.5t3 73t0.5 108z" />
    <glyph glyph-name="R" unicode="R" horiz-adv-x="432" 
d="M323 0l-103 319h-92v-319h-59v712h140q32 0 60 -7.5t49 -29t33 -60t12 -100.5q0 -83 -21.5 -125.5t-66.5 -59.5l111 -330h-63zM304 515q0 69 -20 106.5t-73 37.5h-83v-287h83q53 0 73 37t20 106z" />
    <glyph glyph-name="S" unicode="S" horiz-adv-x="396" 
d="M350 186q0 -57 -10 -93.5t-34 -60.5q-18 -18 -45.5 -28t-65.5 -10q-74 0 -112 38q-12 12 -20 25.5t-13 30.5t-7 39t-2 51h59q0 -42 5.5 -65.5t22.5 -40.5q24 -24 67 -24q25 0 41 6.5t27 17.5q17 19 22.5 44.5t5.5 67.5q0 33 -3 56.5t-11.5 40.5t-23 28.5t-37.5 20.5
l-76 31q-27 11 -45.5 25.5t-29 35t-15 49t-4.5 68.5q0 46 12 82t37 59q40 38 104 38q68 0 107 -39q26 -26 34.5 -58.5t8.5 -79.5h-59q0 34 -5.5 57t-21.5 41q-11 12 -26.5 19t-38.5 7q-21 0 -36 -6t-26 -17q-17 -17 -24 -43t-7 -59q0 -31 3 -51.5t11 -35.5t23.5 -25.5
t39.5 -20.5l76 -31q29 -12 47 -28.5t28 -39.5t13.5 -53t3.5 -69z" />
    <glyph glyph-name="T" unicode="T" horiz-adv-x="341" 
d="M200 659v-659h-59v659h-119v53h297v-53h-119z" />
    <glyph glyph-name="U" unicode="U" horiz-adv-x="417" 
d="M356 148q0 -38 -11 -66.5t-31 -48.5q-43 -41 -105 -41t-105 41q-20 20 -31.5 48.5t-11.5 66.5v564h59v-569q0 -46 26 -72t63 -26t62.5 26t25.5 72v569h59v-564v0z" />
    <glyph glyph-name="V" unicode="V" horiz-adv-x="370" 
d="M214 0h-58l-152 712h65l116 -606l116 606h65z" />
    <glyph glyph-name="W" unicode="W" horiz-adv-x="587" 
d="M475 0h-62l-119 607l-118 -607h-62l-110 712h65l76 -606l115 606h67l117 -606l75 606h64z" />
    <glyph glyph-name="X" unicode="X" horiz-adv-x="372" 
d="M289 0l-103 308l-102 -308h-65l132 371l-121 341h65l91 -282l92 282h64l-124 -341l135 -371h-64z" />
    <glyph glyph-name="Y" unicode="Y" horiz-adv-x="315" 
d="M187 298v-298h-59v298l-125 414h65l89 -326l90 326h65z" />
    <glyph glyph-name="Z" unicode="Z" horiz-adv-x="324" 
d="M30 0v46l203 613h-189v53h250v-46l-202 -613h202v-53h-264z" />
    <glyph glyph-name="bracketleft" unicode="[" horiz-adv-x="236" 
d="M62 -74v860h144v-48h-88v-764h88v-48h-144z" />
    <glyph glyph-name="backslash" unicode="\" horiz-adv-x="246" 
d="M187 -74l-185 860h57l185 -860h-57z" />
    <glyph glyph-name="bracketright" unicode="]" horiz-adv-x="236" 
d="M30 -74v48h88v764h-88v48h144v-860h-144z" />
    <glyph glyph-name="asciicircum" unicode="^" horiz-adv-x="448" 
d="M321 439l-97 221l-97 -221h-58l129 279h52l128 -279h-57z" />
    <glyph glyph-name="underscore" unicode="_" horiz-adv-x="431" 
d="M0 -134v44h431v-44h-431z" />
    <glyph glyph-name="grave" unicode="`" 
d="M156 586l-75 130h58l66 -130h-49z" />
    <glyph glyph-name="a" unicode="a" horiz-adv-x="352" 
d="M240 0v46q-5 -11 -13 -20t-15 -14q-12 -9 -26 -14.5t-35 -5.5q-48 0 -81 34q-14 15 -23.5 44t-9.5 71q0 36 10.5 65.5t32.5 49.5q19 17 42 25.5t58 8.5h58v91q0 42 -17.5 64.5t-52.5 22.5q-15 0 -26.5 -5.5t-19.5 -13.5q-12 -13 -17.5 -29t-5.5 -42h-56q0 29 7.5 56
t29.5 49q16 16 38 25t50 9q61 0 91 -32q17 -18 26 -43t9 -63v-379h-54zM238 246h-56q-20 0 -34.5 -5t-27.5 -17q-13 -13 -20 -34.5t-7 -47.5q0 -46 17 -73t54 -27q34 0 54 26t20 66v112z" />
    <glyph glyph-name="b" unicode="b" horiz-adv-x="365" 
d="M321 254q0 -95 -7.5 -147t-30.5 -79q-32 -36 -79 -36q-33 0 -58 18q-6 5 -15.5 14t-13.5 17v-41h-55v712h56v-241q5 8 12.5 16.5t15.5 13.5q25 16 58 16q26 0 45.5 -9.5t33.5 -26.5q23 -27 30.5 -79.5t7.5 -147.5zM265 254q0 82 -4.5 125.5t-21.5 64.5q-8 10 -21 16.5
t-28 6.5q-27 0 -48 -19q-11 -11 -17.5 -28t-6.5 -42v-247q0 -47 24 -71q19 -18 48 -18q15 0 28 6.5t21 16.5q17 21 21.5 64t4.5 125z" />
    <glyph glyph-name="c" unicode="c" horiz-adv-x="340" 
d="M303 134q-1 -36 -9 -62.5t-27 -46.5q-32 -33 -90 -33q-29 0 -53 10t-41 30q-23 28 -30.5 80t-7.5 142t7.5 142t30.5 80q17 20 41 30.5t53 10.5t51 -7t39 -24q23 -23 29 -52t7 -60h-55q0 19 -3 38t-17 34q-10 11 -21.5 16t-28.5 5t-30.5 -6.5t-21.5 -16.5
q-17 -21 -21 -64.5t-4 -125.5t4 -125t21 -64q8 -10 21.5 -16.5t30.5 -6.5q29 0 49 20q14 14 17.5 31.5t3.5 40.5h55v0z" />
    <glyph glyph-name="d" unicode="d" horiz-adv-x="365" 
d="M248 0v41q-4 -8 -13 -17t-15 -14q-26 -18 -58 -18q-48 0 -79 36q-23 27 -30.5 79t-7.5 147t7.5 147.5t30.5 79.5q14 17 33.5 26.5t45.5 9.5q33 0 58 -16q8 -5 15 -13.5t12 -16.5v241h56v-712h-55zM247 378q0 47 -23 70q-21 19 -49 19q-15 0 -28 -6.5t-21 -16.5
q-17 -21 -21 -64.5t-4 -125.5t4 -125t21 -64q8 -10 21 -16.5t28 -6.5q29 0 49 18q23 23 23 71v247z" />
    <glyph glyph-name="e" unicode="e" horiz-adv-x="349" 
d="M101 246q0 -78 4.5 -119.5t21.5 -61.5q8 -10 21 -16.5t30 -6.5q32 0 51 20q23 25 23 72h55q-1 -37 -9 -62t-28 -45q-17 -17 -41.5 -26t-50.5 -9q-58 0 -92 37q-26 27 -33.5 80t-7.5 145t7.5 145.5t33.5 80.5q34 37 91 37t91 -37q27 -29 33.5 -85.5t6.5 -148.5h-207z
M252 291q-1 65 -5.5 100.5t-19.5 52.5q-8 10 -20.5 16.5t-29.5 6.5t-30 -6.5t-21 -16.5q-15 -17 -19.5 -52.5t-5.5 -100.5h151z" />
    <glyph glyph-name="f" unicode="f" horiz-adv-x="237" 
d="M134 461v-461h-56v461h-62v44h62v73q0 68 38 103q22 20 49 26.5t56 6.5v-51q-87 0 -87 -85v-73h87v-44h-87z" />
    <glyph glyph-name="g" unicode="g" horiz-adv-x="365" 
d="M303 -15q0 -32 -2 -55.5t-6.5 -41.5t-11.5 -31t-18 -25q-16 -17 -40 -27t-51 -10q-58 0 -92 34q-20 20 -27.5 46t-7.5 61h55q0 -23 4 -41t18 -32q19 -19 49 -19q17 0 29.5 6.5t20.5 15.5q14 15 19 42.5t5 75.5v64q-4 -8 -12 -16.5t-15 -13.5q-22 -15 -58 -15
q-47 0 -78 35q-23 26 -31 76.5t-8 145.5t8 145t31 76q14 16 32.5 26t45.5 10q33 0 59 -18q6 -5 14.5 -13.5t12.5 -16.5v40h55v-524zM247 378q0 47 -23 70q-21 19 -49 19q-16 0 -28.5 -6.5t-20.5 -16.5q-17 -20 -21 -63t-4 -122t4 -121.5t21 -62.5q8 -10 20.5 -16.5
t28.5 -6.5q30 0 49 19q23 23 23 70v237z" />
    <glyph glyph-name="h" unicode="h" horiz-adv-x="373" 
d="M259 0v383q0 42 -20.5 62.5t-49.5 20.5t-50 -20.5t-21 -62.5v-383h-56v712h56v-243q4 8 13 16.5t15 13.5q26 18 58 18q26 0 45 -9t35 -26q15 -16 23 -39t8 -61v-382h-56z" />
    <glyph glyph-name="i" unicode="i" horiz-adv-x="181" 
d="M62 0v509h56v-509h-56zM54 626v72h72v-72h-72z" />
    <glyph glyph-name="j" unicode="j" horiz-adv-x="181" 
d="M118 -68q0 -38 -10 -62t-28 -41q-21 -20 -46.5 -26t-54.5 -6v50q38 0 60.5 19t22.5 67v576h56v-577zM54 626v72h72v-72h-72z" />
    <glyph glyph-name="k" unicode="k" horiz-adv-x="373" 
d="M295 0l-110 265l-67 -106v-159h-56v712h56v-470l161 267h61l-120 -195l137 -314h-62z" />
    <glyph glyph-name="l" unicode="l" horiz-adv-x="212" 
d="M196 0q-29 0 -54.5 6t-46.5 26q-18 17 -28 41.5t-10 62.5v576h56v-576q0 -42 20.5 -64t62.5 -22v-50v0z" />
    <glyph glyph-name="m" unicode="m" horiz-adv-x="570" 
d="M456 0v383q0 42 -20.5 62.5t-49.5 20.5t-50 -20.5t-21 -62.5v-383h-56v383q0 42 -20.5 62.5t-49.5 20.5t-50 -20.5t-21 -62.5v-383h-56v509h55v-41q5 8 13.5 17t15.5 14q26 18 58 18q29 0 54.5 -15.5t40.5 -38.5q7 10 16 20t19 16q13 8 28.5 13t32.5 5q32 0 51 -9t35 -26
q15 -16 23 -39t8 -61v-382h-56z" />
    <glyph glyph-name="n" unicode="n" horiz-adv-x="373" 
d="M259 0v383q0 42 -20.5 62.5t-49.5 20.5t-50 -20.5t-21 -62.5v-383h-56v509h55v-41q5 8 13.5 17t15.5 14q26 18 58 18q26 0 45 -9t35 -26q15 -16 23 -39t8 -61v-382h-56z" />
    <glyph glyph-name="o" unicode="o" horiz-adv-x="353" 
d="M309 254q0 -90 -7.5 -142t-30.5 -80q-33 -40 -94 -40t-94 40q-23 28 -30.5 80t-7.5 142t7.5 142t30.5 80q33 41 94 41t94 -41q23 -28 30.5 -80t7.5 -142zM253 254q0 82 -4.5 125.5t-21.5 64.5q-8 10 -20.5 16.5t-29.5 6.5t-30 -6.5t-21 -16.5q-17 -21 -21 -64.5
t-4 -125.5t4 -125t21 -64q8 -10 21 -16.5t30 -6.5t29.5 6.5t20.5 16.5q17 21 21.5 64t4.5 125z" />
    <glyph glyph-name="p" unicode="p" horiz-adv-x="365" 
d="M321 254q0 -95 -7.5 -147t-30.5 -79q-14 -17 -33.5 -26.5t-45.5 -9.5q-33 0 -58 16q-8 5 -15.5 13.5t-12.5 16.5v-241h-56v712h55v-41q4 8 13.5 17t15.5 14q25 18 58 18q47 0 79 -36q23 -27 30.5 -79.5t7.5 -147.5zM265 254q0 82 -4.5 125.5t-21.5 64.5q-8 10 -21 16.5
t-28 6.5q-27 0 -48 -19q-11 -11 -17.5 -28t-6.5 -42v-247q0 -47 24 -71q19 -18 48 -18q15 0 28 6.5t21 16.5q17 21 21.5 64t4.5 125z" />
    <glyph glyph-name="q" unicode="q" horiz-adv-x="365" 
d="M247 -203v241q-5 -8 -12 -16.5t-15 -13.5q-25 -16 -58 -16q-26 0 -45.5 9.5t-33.5 26.5q-23 27 -30.5 79t-7.5 147t7.5 147.5t30.5 79.5q31 36 79 36q32 0 58 -18q6 -5 15 -14t13 -17v41h55v-712h-56zM247 378q0 47 -23 70q-21 19 -49 19q-15 0 -28 -6.5t-21 -16.5
q-17 -21 -21 -64.5t-4 -125.5t4 -125t21 -64q8 -10 21 -16.5t28 -6.5q29 0 49 18q23 23 23 71v247z" />
    <glyph glyph-name="r" unicode="r" horiz-adv-x="245" 
d="M217 464q-45 0 -72 -26.5t-27 -72.5v-365h-56v509h55v-54q4 8 11.5 17.5t13.5 14.5q17 16 39 23t48 7v-53h-12z" />
    <glyph glyph-name="s" unicode="s" horiz-adv-x="336" 
d="M303 130q0 -30 -11 -55.5t-29 -43.5q-39 -39 -97 -39q-57 0 -93 36q-22 23 -31 50.5t-9 59.5h56q0 -24 6 -42.5t20 -32.5q21 -21 51 -21q35 0 58 23t23 63q0 33 -14 55q-16 25 -51 44l-64 35q-24 14 -41 30t-25 30q-14 27 -14 64q0 29 11 53.5t29 42.5q35 35 91 35
q57 0 91 -34q37 -37 37 -110h-56q0 29 -5 45t-17 29q-11 11 -23.5 15.5t-26.5 4.5q-34 0 -53 -19q-12 -11 -17 -27.5t-5 -32.5q0 -27 10 -44q5 -10 17.5 -19t29.5 -19l63 -36q49 -27 69 -60q11 -17 15.5 -37.5t4.5 -42.5z" />
    <glyph glyph-name="t" unicode="t" horiz-adv-x="245" 
d="M225 0q-31 0 -58.5 5.5t-50.5 26.5q-38 35 -38 104v325h-62v44h62v153h56v-153h87v-44h-87v-325q0 -46 23 -66t68 -20v-50v0z" />
    <glyph glyph-name="u" unicode="u" horiz-adv-x="373" 
d="M256 0v41q-5 -8 -13.5 -17t-15.5 -14q-26 -18 -58 -18q-26 0 -45 8.5t-35 25.5q-15 16 -23 39.5t-8 61.5v382h56v-383q0 -42 20.5 -62.5t49.5 -20.5t50 20.5t21 62.5v383h56v-509h-55z" />
    <glyph glyph-name="v" unicode="v" horiz-adv-x="305" 
d="M182 0h-59l-119 509h62l87 -421l87 421h61z" />
    <glyph glyph-name="w" unicode="w" horiz-adv-x="474" 
d="M371 0h-60l-77 416l-73 -416h-60l-97 509h65l63 -421l74 421h56l78 -421l65 421h65z" />
    <glyph glyph-name="x" unicode="x" horiz-adv-x="321" 
d="M242 0l-81 210l-82 -210h-62l112 259l-106 250h62l76 -202l75 202h62l-108 -250l114 -259h-62z" />
    <glyph glyph-name="y" unicode="y" horiz-adv-x="308" 
d="M157 -99q-14 -59 -52 -81.5t-96 -22.5v50q42 0 63.5 16.5t29.5 48.5l23 90l-121 507h62l87 -420l87 420h61z" />
    <glyph glyph-name="z" unicode="z" horiz-adv-x="276" 
d="M22 0v44l172 415h-162v50h223v-44l-172 -415h172v-50h-233z" />
    <glyph glyph-name="braceleft" unicode="{" horiz-adv-x="287" 
d="M234 -74q-25 0 -47.5 9t-37.5 24q-16 16 -25 39t-9 58v194q0 40 -19.5 60.5t-48.5 20.5h-17v50h17q29 0 48.5 20.5t19.5 60.5v194q0 35 9 58t25 39q15 15 37.5 24t47.5 9h24v-50h-18q-29 0 -49 -20.5t-20 -60.5v-191q0 -34 -8 -55.5t-22 -35.5q-6 -6 -13 -10t-14 -7
q15 -5 27 -17q14 -14 22 -35.5t8 -55.5v-191q0 -40 20 -60.5t49 -20.5h18v-50h-24z" />
    <glyph glyph-name="bar" unicode="|" horiz-adv-x="251" 
d="M97 -74v860h56v-860h-56z" />
    <glyph glyph-name="braceright" unicode="}" horiz-adv-x="287" 
d="M240 331q-29 0 -48.5 -20.5t-19.5 -60.5v-194q0 -35 -9 -58t-25 -39q-15 -15 -37.5 -24t-47.5 -9h-23v50h17q29 0 49 20.5t20 60.5v191q0 34 8.5 55.5t22.5 35.5q6 6 12.5 10t13.5 7q-14 4 -26 17q-14 14 -22.5 35.5t-8.5 55.5v191q0 40 -20 60.5t-49 20.5h-17v50h23
q25 0 47.5 -9t37.5 -24q16 -16 25 -39t9 -58v-194q0 -40 19.5 -60.5t48.5 -20.5h18v-50h-18z" />
    <glyph glyph-name="asciitilde" unicode="~" horiz-adv-x="431" 
d="M385 283q-32 -32 -53 -42.5t-46 -10.5q-21 0 -40.5 7.5t-40.5 16.5q-16 8 -30 13.5t-30 5.5q-17 0 -29.5 -6.5t-34.5 -28.5l-34 34q16 16 28.5 26.5t24 16.5t22 8.5t23.5 2.5q21 0 40.5 -8t40.5 -17q16 -8 30 -13t30 -5q17 0 30 6t35 28l34 -34v0z" />
    <glyph glyph-name="nonbreakingspace" unicode="&#xa0;" horiz-adv-x="194" 
 />
    <glyph glyph-name="exclamdown" unicode="&#xa1;" horiz-adv-x="227" 
d="M71 -203v525h56v-525h-56zM62 434v75h75v-75h-75z" />
    <glyph glyph-name="cent" unicode="&#xa2;" horiz-adv-x="342" 
d="M304 242q-1 -35 -8.5 -60t-26.5 -44q-26 -25 -68 -31v-107h-45v108q-44 6 -72 37q-23 26 -30.5 76t-7.5 136t7.5 136t30.5 76q28 31 72 37v106h45v-105q41 -5 67 -29q23 -22 29 -49.5t7 -56.5h-55q0 18 -2.5 36t-16.5 32q-11 12 -29 17v-400q16 5 27 16q14 14 17.5 30.5
t3.5 38.5h55zM156 556q-17 -6 -28 -18q-17 -20 -21.5 -61.5t-4.5 -119.5t4.5 -119.5t21.5 -61.5q11 -12 28 -18v398z" />
    <glyph glyph-name="sterling" unicode="&#xa3;" horiz-adv-x="393" 
d="M99 0v351h-64v44h64v167q0 39 12 68.5t33 49.5t48 30t57 10q33 0 62.5 -12.5t50.5 -37.5l-42 -38q-12 15 -30 25t-41 10q-38 0 -64.5 -27t-26.5 -75v-170h91v-44h-91v-298h204v-53h-263z" />
    <glyph glyph-name="currency" unicode="&#xa4;" horiz-adv-x="631" 
d="M473 78l-57 57q-21 -16 -46.5 -25t-54.5 -9t-54.5 9t-46.5 25l-56 -57l-36 35l57 57q-16 21 -25 46.5t-9 54.5t9 55t25 46l-57 56l36 35l56 -56q44 33 101 33t101 -33l57 56l35 -35l-57 -56q16 -20 25 -46t9 -55t-9 -54.5t-25 -46.5l57 -57zM434 271q0 25 -9.5 46.5
t-25.5 37.5t-37.5 25t-46.5 9t-46.5 -9t-37.5 -25t-25 -37.5t-9 -46.5t9 -46.5t25 -37.5t37.5 -25.5t46.5 -9.5t46.5 9.5t37.5 25.5t25.5 37.5t9.5 46.5z" />
    <glyph glyph-name="yen" unicode="&#xa5;" horiz-adv-x="315" 
d="M218 403h51v-44h-64l-19 -61v-40h83v-44h-83v-214h-58v214h-83v44h83v40l-17 61h-66v44h52l-92 309h63l89 -326l90 326h63z" />
    <glyph glyph-name="brokenbar" unicode="&#xa6;" horiz-adv-x="251" 
d="M97 437v348h56v-348h-56zM97 -73v348h56v-348h-56z" />
    <glyph glyph-name="section" unicode="&#xa7;" horiz-adv-x="389" 
d="M330 271q0 -34 -2 -58.5t-6.5 -42t-12 -30.5t-19.5 -24q-10 -9 -24 -16.5t-31 -10.5q21 -13 37.5 -25t29.5 -33q9 -15 14 -36t5 -41q0 -60 -36 -97q-37 -37 -94 -37q-27 0 -50 9.5t-40 26.5q-20 20 -28.5 45.5t-8.5 51.5h56q0 -37 23 -63q10 -11 22.5 -15.5t25.5 -4.5
q32 0 53 21q20 20 20 61q0 15 -3.5 30t-9.5 25q-9 14 -21.5 23.5t-27.5 17.5l-66 37q-10 5 -19.5 11.5t-17.5 14.5q-13 13 -21 27.5t-12 33.5t-5.5 43t-1.5 56q0 34 1.5 58t6 41.5t12.5 30.5t20 25q21 20 55 27q-21 12 -39.5 27t-29.5 34q-8 14 -12 31t-4 40q0 57 38 93
q36 34 90 34q28 0 48.5 -7.5t37.5 -23.5q20 -18 29.5 -44.5t9.5 -55.5h-56q0 17 -5 33t-17 29q-10 11 -22 15t-25 4q-31 0 -49 -18q-11 -11 -16.5 -25.5t-5.5 -30.5q0 -34 11 -51q6 -10 18 -21t26 -19l66 -36q11 -6 23.5 -14t20.5 -16q13 -13 21 -27t12 -32t5 -42.5t1 -58.5
zM274 271q0 27 -1 47t-3.5 34.5t-7.5 25t-14 19.5q-22 22 -54 22q-31 0 -52 -21q-8 -8 -13 -17.5t-8 -24t-4.5 -35.5t-1.5 -50q0 -54 5 -81.5t22 -44.5q21 -21 52 -21q32 0 54 22q17 17 21.5 44t4.5 81z" />
    <glyph glyph-name="dieresis" unicode="&#xa8;" 
d="M214 606v63h63v-63h-63zM77 606v63h63v-63h-63z" />
    <glyph glyph-name="copyright" unicode="&#xa9;" horiz-adv-x="862" 
d="M793 356q0 -75 -28.5 -141t-77.5 -115t-115 -77.5t-141 -28.5t-141 28.5t-115 77.5t-77.5 115t-28.5 141t28.5 141t77.5 115t115 77.5t141 28.5t141 -28.5t115 -77.5t77.5 -115t28.5 -141zM747 356q0 66 -25 124.5t-67.5 102t-100 69t-123.5 25.5t-123.5 -25.5
t-100.5 -69t-68 -102t-25 -124.5t25 -124.5t68 -102t100.5 -69t123.5 -25.5t123.5 25.5t100 69t67.5 102t25 124.5zM525 262q0 -58 -27 -86q-25 -25 -67 -25q-23 0 -40.5 8t-28.5 22q-19 22 -24 63t-5 112t5 112t24 63q11 14 28.5 22t40.5 8q41 0 67 -26q27 -28 27 -86h-42
q0 18 -2.5 32t-12.5 25q-14 16 -37 16t-37 -17q-13 -17 -16 -51.5t-3 -97.5t3 -97.5t16 -51.5q14 -17 37 -17q22 0 36 15q10 11 13 25t3 32h42z" />
    <glyph glyph-name="ordfeminine" unicode="&#xaa;" horiz-adv-x="297" 
d="M201 320v33q-5 -8 -11.5 -15t-11.5 -10q-9 -6 -21 -10t-29 -4q-40 0 -67 28q-12 13 -20 34t-8 53q0 29 10.5 51t28.5 38q28 25 80 25h46v66q0 28 -13.5 47t-42.5 19q-25 0 -39 -16q-11 -12 -14 -26.5t-3 -29.5h-47q0 24 6 46t24 40q27 27 73 27q47 0 74 -28
q14 -14 22 -33.5t8 -48.5v-286h-45zM198 506h-45q-32 0 -48 -15q-24 -21 -24 -61q0 -29 12.5 -52t45.5 -23q26 0 42.5 22t16.5 54v75z" />
    <glyph glyph-name="guillemotleft" unicode="&#xab;" horiz-adv-x="371" 
d="M180 268l136 210v-96l-76 -114l76 -115v-95zM29 268l135 210v-96l-75 -114l75 -115v-95z" />
    <glyph glyph-name="logicalnot" unicode="&#xac;" horiz-adv-x="431" 
d="M328 151v103h-278v54h331v-157h-53z" />
    <glyph glyph-name="registered" unicode="&#xae;" horiz-adv-x="862" 
d="M793 356q0 -75 -28.5 -141t-77.5 -115t-115 -77.5t-141 -28.5t-141 28.5t-115 77.5t-77.5 115t-28.5 141t28.5 141t77.5 115t115 77.5t141 28.5t141 -28.5t115 -77.5t77.5 -115t28.5 -141zM747 356q0 66 -25 124.5t-67.5 102t-100 69t-123.5 25.5t-123.5 -25.5
t-100.5 -69t-68 -102t-25 -124.5t25 -124.5t68 -102t100.5 -69t123.5 -25.5t123.5 25.5t100 69t67.5 102t25 124.5zM498 157l-54 174h-58v-174h-43v399h98q39 0 64 -23q16 -16 21 -37t5 -53q0 -36 -5 -55t-21 -34q-7 -7 -21 -14l59 -183h-45zM489 443q0 23 -2.5 36t-12.5 24
q-13 13 -32 13h-56v-146h56q19 0 32 13q10 11 12.5 24t2.5 36z" />
    <glyph glyph-name="macron" unicode="&#xaf;" 
d="M71 613v44h212v-44h-212z" />
    <glyph glyph-name="degree" unicode="&#xb0;" horiz-adv-x="382" 
d="M327 585q0 -28 -10.5 -53t-29 -43.5t-43.5 -29t-53 -10.5t-52.5 10.5t-43 29t-29 43.5t-10.5 53t10.5 52.5t29 43t43 29t52.5 10.5t53 -10.5t43.5 -29t29 -43t10.5 -52.5zM277 585q0 38 -24.5 62.5t-61.5 24.5t-61.5 -24.5t-24.5 -62.5t24.5 -63t61.5 -25t61.5 25
t24.5 63z" />
    <glyph glyph-name="plusminus" unicode="&#xb1;" horiz-adv-x="431" 
d="M242 286v-141h-53v141h-140v53h140v141h53v-141h141v-53h-141zM49 36v53h334v-53h-334z" />
    <glyph glyph-name="twosuperior" unicode="&#xb2;" horiz-adv-x="318" 
d="M58 285v34l136 221q12 20 17.5 37t5.5 42q0 27 -15.5 43.5t-43.5 16.5q-31 0 -44.5 -18t-13.5 -51v-18h-44v17q0 29 6 48t21 33q29 27 75 27q25 0 41.5 -6t31.5 -18q30 -24 30 -74q0 -26 -7 -49.5t-23 -48.5l-123 -201h153v-35h-203z" />
    <glyph glyph-name="threesuperior" unicode="&#xb3;" horiz-adv-x="318" 
d="M257 399q0 -37 -6.5 -56.5t-23.5 -36.5q-13 -12 -32.5 -19t-42.5 -7q-49 0 -77 27q-13 12 -19 30t-6 55v13h45v-13q0 -26 3.5 -38.5t12.5 -20.5q15 -15 41 -15q27 0 42 15q9 10 14 25.5t5 41.5q0 28 -4 43t-12 25q-16 19 -45 19h-29v38h29q25 0 40 14q14 13 16 31.5
t2 35.5t-3.5 33t-14.5 27q-15 13 -40 13q-27 0 -42 -15q-8 -8 -11.5 -22.5t-3.5 -31.5v-13h-44v12q0 32 6.5 50.5t19.5 30.5q14 13 31.5 20t43.5 7t44 -7t30 -19q28 -28 28 -84q0 -26 -3.5 -42t-14.5 -30q-16 -20 -39 -29q27 -8 43 -32q9 -13 13 -30.5t4 -44.5z" />
    <glyph glyph-name="acute" unicode="&#xb4;" 
d="M199 586h-49l65 130h58z" />
    <glyph glyph-name="mu" unicode="&#xb5;" horiz-adv-x="378" 
d="M260 0v41q-5 -8 -13.5 -17t-15.5 -14q-12 -8 -26 -13t-32 -5q-19 0 -35 6.5t-21 14.5v-217h-55v713h56v-384q0 -42 20.5 -62.5t49.5 -20.5t50 20.5t21 62.5v384h56v-509h-55z" />
    <glyph glyph-name="mu" unicode="&#x3bc;" horiz-adv-x="378" 
d="M260 0v41q-5 -8 -13.5 -17t-15.5 -14q-12 -8 -26 -13t-32 -5q-19 0 -35 6.5t-21 14.5v-217h-55v713h56v-384q0 -42 20.5 -62.5t49.5 -20.5t50 20.5t21 62.5v384h56v-509h-55z" />
    <glyph glyph-name="paragraph" unicode="&#xb6;" horiz-adv-x="538" 
d="M419 -204v864h-120v-864h-56v511h-56q-33 0 -59 11t-44.5 35t-28 62.5t-9.5 93.5q0 109 37.5 156t103.5 47h288v-916h-56z" />
    <glyph glyph-name="periodcentered" unicode="&#xb7;" horiz-adv-x="259" 
d="M68 245v123h123v-123h-123z" />
    <glyph glyph-name="cedilla" unicode="&#xb8;" 
d="M163 -170h-53l53 133h45z" />
    <glyph glyph-name="onesuperior" unicode="&#xb9;" horiz-adv-x="318" 
d="M145 285v379l-69 -48v48l69 48h43v-427h-43z" />
    <glyph glyph-name="ordmasculine" unicode="&#xba;" horiz-adv-x="296" 
d="M254 515q0 -69 -6 -109t-25 -61q-27 -31 -75 -31t-75 31q-19 21 -25 61t-6 109t6 109t25 61q26 30 75 30t75 -30q19 -21 25 -61t6 -109zM207 515q0 58 -3.5 92t-17.5 50t-38 16q-25 0 -39 -16t-17 -50t-3 -92t3 -92.5t17 -50.5t39 -16q24 0 38 16t17.5 50.5t3.5 92.5z
" />
    <glyph glyph-name="guillemotright" unicode="&#xbb;" horiz-adv-x="371" 
d="M206 58v95l76 115l-76 114v96l136 -210zM55 58v95l76 115l-76 114v96l136 -210z" />
    <glyph glyph-name="onequarter" unicode="&#xbc;" horiz-adv-x="801" 
d="M283 0h-47l247 712h47zM704 64v-64h-43v64h-149v38l125 325h44l-124 -325h104v103h43v-103h31v-38h-31zM144 285v379l-68 -48v48l69 48h43v-427h-44z" />
    <glyph glyph-name="onehalf" unicode="&#xbd;" horiz-adv-x="801" 
d="M283 0h-47l247 712h47zM541 0v34l137 221q12 20 17.5 37t5.5 42q0 27 -15.5 43.5t-43.5 16.5q-31 0 -44.5 -18t-13.5 -51v-18h-44v17q0 29 6 48t21 33q29 27 75 27q25 0 41.5 -6t31.5 -18q30 -24 30 -74q0 -26 -7 -49.5t-23 -48.5l-124 -201h154v-35h-204zM144 285v379
l-68 -48v48l69 48h43v-427h-44z" />
    <glyph glyph-name="threequarters" unicode="&#xbe;" horiz-adv-x="801" 
d="M257 399q0 -37 -6.5 -56.5t-23.5 -36.5q-13 -12 -32.5 -19t-42.5 -7q-49 0 -77 27q-13 12 -19 30t-6 55v13h45v-13q0 -26 3.5 -38.5t12.5 -20.5q15 -15 41 -15q27 0 42 15q9 10 14 25.5t5 41.5q0 28 -4 43t-12 25q-16 19 -45 19h-29v38h29q25 0 40 14q14 13 16 31.5
t2 35.5t-3.5 33t-14.5 27q-15 13 -40 13q-27 0 -42 -15q-8 -8 -11.5 -22.5t-3.5 -31.5v-13h-44v12q0 32 6.5 50.5t19.5 30.5q14 13 31.5 20t43.5 7t44 -7t30 -19q28 -28 28 -84q0 -26 -3.5 -42t-14.5 -30q-16 -20 -39 -29q27 -8 43 -32q9 -13 13 -30.5t4 -44.5zM283 0h-47
l247 712h47zM704 64v-64h-44v64h-148v38l125 325h44l-124 -325h103v103h44v-103h31v-38h-31z" />
    <glyph glyph-name="questiondown" unicode="&#xbf;" horiz-adv-x="375" 
d="M317 -53q0 -38 -8 -67.5t-31 -51.5q-17 -17 -41.5 -27t-54.5 -10q-63 0 -99 37q-10 10 -17.5 22t-12.5 27.5t-7.5 36t-2.5 48.5q0 35 5.5 60.5t23.5 54.5l58 93q11 17 16 35.5t5 38.5v78h56v-85q0 -45 -24 -83l-58 -92q-17 -26 -21.5 -48.5t-4.5 -52.5q0 -41 7 -62.5
t21 -35.5q20 -22 55 -22q18 0 30.5 5.5t22.5 15.5q17 17 21.5 39.5t4.5 45.5h56zM142 434v75h75v-75h-75z" />
    <glyph glyph-name="Agrave" unicode="&#xc0;" horiz-adv-x="379" 
d="M311 0l-39 195h-166l-38 -195h-64l159 712h55l156 -712h-63zM189 606l-71 -358h143zM169 764l-75 130h58l66 -130h-49z" />
    <glyph glyph-name="Aacute" unicode="&#xc1;" horiz-adv-x="379" 
d="M311 0l-39 195h-166l-38 -195h-64l159 712h55l156 -712h-63zM189 606l-71 -358h143zM212 764h-49l65 130h58z" />
    <glyph glyph-name="Acircumflex" unicode="&#xc2;" horiz-adv-x="379" 
d="M311 0l-39 195h-166l-38 -195h-64l159 712h55l156 -712h-63zM189 606l-71 -358h143zM250 764l-60 92l-60 -92h-51l86 130h50l87 -130h-52z" />
    <glyph glyph-name="Atilde" unicode="&#xc3;" horiz-adv-x="379" 
d="M311 0l-39 195h-166l-38 -195h-64l159 712h55l156 -712h-63zM189 606l-71 -358h143zM310 813q-26 -26 -41.5 -32t-29.5 -6q-16 0 -28 4.5t-26 12.5q-11 6 -20.5 11t-20.5 5q-9 0 -18 -3.5t-26 -20.5l-28 29q25 25 41 31.5t30 6.5q17 0 28.5 -4t25.5 -13q11 -7 20.5 -11.5
t20.5 -4.5q8 0 17.5 4t25.5 20z" />
    <glyph glyph-name="Adieresis" unicode="&#xc4;" horiz-adv-x="379" 
d="M311 0l-39 195h-166l-38 -195h-64l159 712h55l156 -712h-63zM189 606l-71 -358h143zM227 784v63h63v-63h-63zM90 784v63h63v-63h-63z" />
    <glyph glyph-name="Aring" unicode="&#xc5;" horiz-adv-x="379" 
d="M311 0l-39 195h-166l-38 -195h-64l159 712h55l156 -712h-63zM281 843q0 -38 -26.5 -64.5t-64.5 -26.5t-64.5 26.5t-26.5 64.5t26.5 64t64.5 26t64.5 -26t26.5 -64zM189 606l-71 -358h143zM243 843q0 22 -15.5 37t-37.5 15t-37 -15t-15 -37t15 -37.5t37 -15.5t37.5 15.5
t15.5 37.5z" />
    <glyph glyph-name="AE" unicode="&#xc6;" horiz-adv-x="604" 
d="M309 0v197h-168l-72 -197h-64l265 712h288v-53h-190v-276h164v-53h-164v-277h190v-53h-249zM309 660l-149 -410h149v410z" />
    <glyph glyph-name="Ccedilla" unicode="&#xc7;" horiz-adv-x="399" 
d="M358 163q-1 -43 -12.5 -78.5t-37.5 -58.5q-18 -16 -42 -25t-56 -9q-35 0 -61.5 11t-44.5 31q-17 18 -27 40t-15 57.5t-6.5 89t-1.5 135.5t1.5 135.5t6.5 89t15 57.5t27 40q18 20 44.5 31t61.5 11q34 0 59 -10t43 -28q23 -23 34 -57.5t12 -75.5h-59q0 27 -6 52t-22 42
q-11 11 -25.5 17.5t-35.5 6.5q-22 0 -37 -7t-26 -19q-11 -13 -17.5 -30t-10.5 -47.5t-5 -80t-1 -127.5t1 -127.5t5 -80t10.5 -47.5t17.5 -30q11 -12 26 -19t37 -7q21 0 35.5 6.5t25.5 17.5q16 17 22 42t6 52h59zM191 -170h-53l53 133h45z" />
    <glyph glyph-name="Egrave" unicode="&#xc8;" horiz-adv-x="364" 
d="M69 0v712h248v-53h-189v-276h163v-53h-163v-277h189v-53h-248zM176 764l-75 130h58l66 -130h-49z" />
    <glyph glyph-name="Eacute" unicode="&#xc9;" horiz-adv-x="364" 
d="M69 0v712h248v-53h-189v-276h163v-53h-163v-277h189v-53h-248zM219 764h-49l65 130h58z" />
    <glyph glyph-name="Ecircumflex" unicode="&#xca;" horiz-adv-x="364" 
d="M69 0v712h248v-53h-189v-276h163v-53h-163v-277h189v-53h-248zM257 764l-60 92l-60 -92h-51l86 130h50l87 -130h-52z" />
    <glyph glyph-name="Edieresis" unicode="&#xcb;" horiz-adv-x="364" 
d="M69 0v712h248v-53h-189v-276h163v-53h-163v-277h189v-53h-248zM97 784v63h63v-63h-63zM234 784v63h63v-63h-63z" />
    <glyph glyph-name="Igrave" unicode="&#xcc;" horiz-adv-x="197" 
d="M69 0v712h59v-712h-59zM74 764l-75 130h58l66 -130h-49z" />
    <glyph glyph-name="Iacute" unicode="&#xcd;" horiz-adv-x="197" 
d="M69 0v712h59v-712h-59zM124 764h-49l65 130h58z" />
    <glyph glyph-name="Icircumflex" unicode="&#xce;" horiz-adv-x="197" 
d="M69 0v712h59v-712h-59zM161 764l-60 92l-60 -92h-51l86 130h50l87 -130h-52z" />
    <glyph glyph-name="Idieresis" unicode="&#xcf;" horiz-adv-x="197" 
d="M69 0v712h59v-712h-59zM-2 784v63h63v-63h-63zM135 784v63h63v-63h-63z" />
    <glyph glyph-name="Eth" unicode="&#xd0;" horiz-adv-x="429" 
d="M375 356q0 -81 -1.5 -133.5t-6.5 -87t-15 -55.5t-27 -39q-18 -19 -44 -30t-61 -11h-147v332h-53v49h53v331h147q35 0 61 -11t44 -30q17 -18 27 -39t15 -55.5t6.5 -87t1.5 -133.5zM316 356q0 76 -1 124.5t-5 78.5t-10.5 46t-18.5 29q-11 11 -27 18t-37 7h-85v-278h91v-49
h-91v-279h85q21 0 37 7t27 18q12 13 18.5 29t10.5 46t5 78t1 125z" />
    <glyph glyph-name="Ntilde" unicode="&#xd1;" horiz-adv-x="454" 
d="M327 0l-199 555v-555h-59v712h59l199 -555l-1 555h59v-712h-58zM351 813q-26 -26 -41.5 -32t-29.5 -6q-16 0 -28 4.5t-26 12.5q-11 6 -20.5 11t-20.5 5q-9 0 -18 -3.5t-26 -20.5l-28 29q25 25 41 31.5t30 6.5q17 0 28.5 -4t25.5 -13q11 -7 20.5 -11.5t20.5 -4.5
q8 0 17.5 4t25.5 20z" />
    <glyph glyph-name="Ograve" unicode="&#xd2;" horiz-adv-x="421" 
d="M367 356q0 -82 -1.5 -135.5t-6.5 -89t-15 -57.5t-27 -40q-18 -20 -45 -31t-62 -11t-61.5 11t-44.5 31q-17 18 -27 40t-15 57.5t-6.5 89t-1.5 135.5t1.5 135.5t6.5 89t15 57.5t27 40q18 20 44.5 31t61.5 11t62 -11t45 -31q17 -18 27 -40t15 -57.5t6.5 -89t1.5 -135.5z
M308 356q0 78 -1 127.5t-5 80t-10.5 47.5t-17.5 30q-23 26 -64 26q-22 0 -37 -7t-26 -19q-11 -13 -17.5 -30t-10.5 -47.5t-5 -80t-1 -127.5t1 -127.5t5 -80t10.5 -47.5t17.5 -30q11 -12 26 -19t37 -7t37.5 7t26.5 19q11 13 17.5 30t10.5 47.5t5 80t1 127.5zM185 764l-75 130
h58l66 -130h-49z" />
    <glyph glyph-name="Oacute" unicode="&#xd3;" horiz-adv-x="421" 
d="M367 356q0 -82 -1.5 -135.5t-6.5 -89t-15 -57.5t-27 -40q-18 -20 -45 -31t-62 -11t-61.5 11t-44.5 31q-17 18 -27 40t-15 57.5t-6.5 89t-1.5 135.5t1.5 135.5t6.5 89t15 57.5t27 40q18 20 44.5 31t61.5 11t62 -11t45 -31q17 -18 27 -40t15 -57.5t6.5 -89t1.5 -135.5z
M308 356q0 78 -1 127.5t-5 80t-10.5 47.5t-17.5 30q-23 26 -64 26q-22 0 -37 -7t-26 -19q-11 -13 -17.5 -30t-10.5 -47.5t-5 -80t-1 -127.5t1 -127.5t5 -80t10.5 -47.5t17.5 -30q11 -12 26 -19t37 -7t37.5 7t26.5 19q11 13 17.5 30t10.5 47.5t5 80t1 127.5zM228 764h-49
l65 130h58z" />
    <glyph glyph-name="Ocircumflex" unicode="&#xd4;" horiz-adv-x="421" 
d="M367 356q0 -82 -1.5 -135.5t-6.5 -89t-15 -57.5t-27 -40q-18 -20 -45 -31t-62 -11t-61.5 11t-44.5 31q-17 18 -27 40t-15 57.5t-6.5 89t-1.5 135.5t1.5 135.5t6.5 89t15 57.5t27 40q18 20 44.5 31t61.5 11t62 -11t45 -31q17 -18 27 -40t15 -57.5t6.5 -89t1.5 -135.5z
M308 356q0 78 -1 127.5t-5 80t-10.5 47.5t-17.5 30q-23 26 -64 26q-22 0 -37 -7t-26 -19q-11 -13 -17.5 -30t-10.5 -47.5t-5 -80t-1 -127.5t1 -127.5t5 -80t10.5 -47.5t17.5 -30q11 -12 26 -19t37 -7t37.5 7t26.5 19q11 13 17.5 30t10.5 47.5t5 80t1 127.5zM266 764l-60 92
l-60 -92h-51l86 130h50l87 -130h-52z" />
    <glyph glyph-name="Otilde" unicode="&#xd5;" horiz-adv-x="421" 
d="M367 356q0 -82 -1.5 -135.5t-6.5 -89t-15 -57.5t-27 -40q-18 -20 -45 -31t-62 -11t-61.5 11t-44.5 31q-17 18 -27 40t-15 57.5t-6.5 89t-1.5 135.5t1.5 135.5t6.5 89t15 57.5t27 40q18 20 44.5 31t61.5 11t62 -11t45 -31q17 -18 27 -40t15 -57.5t6.5 -89t1.5 -135.5z
M308 356q0 78 -1 127.5t-5 80t-10.5 47.5t-17.5 30q-23 26 -64 26q-22 0 -37 -7t-26 -19q-11 -13 -17.5 -30t-10.5 -47.5t-5 -80t-1 -127.5t1 -127.5t5 -80t10.5 -47.5t17.5 -30q11 -12 26 -19t37 -7t37.5 7t26.5 19q11 13 17.5 30t10.5 47.5t5 80t1 127.5zM326 813
q-26 -26 -41.5 -32t-29.5 -6q-16 0 -28 4.5t-26 12.5q-11 6 -20.5 11t-20.5 5q-9 0 -18 -3.5t-26 -20.5l-28 29q25 25 41 31.5t30 6.5q17 0 28.5 -4t25.5 -13q11 -7 20.5 -11.5t20.5 -4.5q8 0 17.5 4t25.5 20z" />
    <glyph glyph-name="Odieresis" unicode="&#xd6;" horiz-adv-x="421" 
d="M367 356q0 -82 -1.5 -135.5t-6.5 -89t-15 -57.5t-27 -40q-18 -20 -45 -31t-62 -11t-61.5 11t-44.5 31q-17 18 -27 40t-15 57.5t-6.5 89t-1.5 135.5t1.5 135.5t6.5 89t15 57.5t27 40q18 20 44.5 31t61.5 11t62 -11t45 -31q17 -18 27 -40t15 -57.5t6.5 -89t1.5 -135.5z
M308 356q0 78 -1 127.5t-5 80t-10.5 47.5t-17.5 30q-23 26 -64 26q-22 0 -37 -7t-26 -19q-11 -13 -17.5 -30t-10.5 -47.5t-5 -80t-1 -127.5t1 -127.5t5 -80t10.5 -47.5t17.5 -30q11 -12 26 -19t37 -7t37.5 7t26.5 19q11 13 17.5 30t10.5 47.5t5 80t1 127.5zM243 784v63h63
v-63h-63zM106 784v63h63v-63h-63z" />
    <glyph glyph-name="multiply" unicode="&#xd7;" horiz-adv-x="431" 
d="M333 115l-117 118l-118 -118l-36 37l117 117l-117 118l36 36l118 -117l117 117l37 -36l-118 -118l118 -117z" />
    <glyph glyph-name="Oslash" unicode="&#xd8;" horiz-adv-x="405" 
d="M367 356q0 -82 -1.5 -135.5t-6.5 -89t-15 -57.5t-27 -40q-18 -20 -45 -31t-62 -11q-47 0 -79 20l-17 -56h-50l29 90q-13 17 -21 40t-12 58.5t-5 87t-1 124.5q0 82 1.5 135.5t6.5 89t15 57.5t27 40q18 20 44.5 31t61.5 11q46 0 80 -20l17 56h50l-28 -91q13 -17 20.5 -40
t11.5 -59t5 -87t1 -123zM272 644q-21 23 -62 23q-22 0 -37 -7t-26 -19q-11 -13 -17.5 -30t-10.5 -47.5t-5 -80t-1 -127.5q0 -50 0.5 -87t1.5 -64t3.5 -45t5.5 -31zM308 356q0 49 -0.5 85.5t-1.5 62.5t-3.5 44.5t-5.5 31.5l-148 -512q21 -23 61 -23q22 0 37.5 7t26.5 19
q11 13 17.5 30t10.5 47.5t5 80t1 127.5z" />
    <glyph glyph-name="Ugrave" unicode="&#xd9;" horiz-adv-x="417" 
d="M356 148q0 -38 -11 -66.5t-31 -48.5q-43 -41 -105 -41t-105 41q-20 20 -31.5 48.5t-11.5 66.5v564h59v-569q0 -46 26 -72t63 -26t62.5 26t25.5 72v569h59v-564zM191 764l-75 130h58l66 -130h-49z" />
    <glyph glyph-name="Uacute" unicode="&#xda;" horiz-adv-x="417" 
d="M356 148q0 -38 -11 -66.5t-31 -48.5q-43 -41 -105 -41t-105 41q-20 20 -31.5 48.5t-11.5 66.5v564h59v-569q0 -46 26 -72t63 -26t62.5 26t25.5 72v569h59v-564zM234 764h-49l65 130h58z" />
    <glyph glyph-name="Ucircumflex" unicode="&#xdb;" horiz-adv-x="417" 
d="M356 148q0 -38 -11 -66.5t-31 -48.5q-43 -41 -105 -41t-105 41q-20 20 -31.5 48.5t-11.5 66.5v564h59v-569q0 -46 26 -72t63 -26t62.5 26t25.5 72v569h59v-564zM272 764l-60 92l-60 -92h-51l86 130h50l87 -130h-52z" />
    <glyph glyph-name="Udieresis" unicode="&#xdc;" horiz-adv-x="417" 
d="M356 148q0 -38 -11 -66.5t-31 -48.5q-43 -41 -105 -41t-105 41q-20 20 -31.5 48.5t-11.5 66.5v564h59v-569q0 -46 26 -72t63 -26t62.5 26t25.5 72v569h59v-564zM112 784v63h63v-63h-63zM249 784v63h63v-63h-63z" />
    <glyph glyph-name="Yacute" unicode="&#xdd;" horiz-adv-x="315" 
d="M187 298v-298h-59v298l-125 414h65l89 -326l90 326h65zM182 764h-49l65 130h58z" />
    <glyph glyph-name="Thorn" unicode="&#xde;" horiz-adv-x="409" 
d="M363 360q0 -56 -10 -94.5t-29.5 -61.5t-48 -33t-66.5 -10h-81v-161h-59v712h59v-154h81q32 0 60 -7.5t49 -29t33 -60t12 -101.5zM304 359q0 70 -20 108t-73 38h-83v-291h83q53 0 73 37.5t20 107.5z" />
    <glyph glyph-name="germandbls" unicode="&#xdf;" horiz-adv-x="373" 
d="M328 224q0 -36 -1 -65t-5 -52t-12 -41t-22 -32q-20 -20 -45.5 -27t-53.5 -7v50q19 0 34 5t25 16q15 16 19.5 50.5t4.5 105.5q0 66 -4.5 101t-19.5 52q-19 22 -50 22h-9v48h7q25 0 42 19t20.5 44t3.5 49q0 32 -4.5 52.5t-17.5 34.5q-9 11 -22.5 16t-28.5 5q-29 0 -50 -21
t-21 -63v-586h-56v584q0 38 9.5 61t26.5 40q16 16 40.5 25.5t50.5 9.5t50 -8.5t41 -25.5q23 -23 30.5 -50.5t7.5 -71.5q0 -25 -3 -50.5t-16 -48.5q-6 -10 -14.5 -19.5t-19.5 -16.5q9 -5 16.5 -11.5t13.5 -13.5q9 -11 15.5 -24.5t10.5 -33.5t5.5 -49.5t1.5 -72.5z" />
    <glyph glyph-name="agrave" unicode="&#xe0;" horiz-adv-x="352" 
d="M239 0v46q-5 -11 -13 -20t-15 -14q-12 -9 -26 -14.5t-35 -5.5q-48 0 -81 34q-14 15 -23.5 44t-9.5 71q0 36 11 65.5t32 49.5q20 17 42.5 25.5t57.5 8.5h58v91q0 42 -17 64.5t-53 22.5q-14 0 -25.5 -5.5t-20.5 -13.5q-12 -13 -17.5 -29t-5.5 -42h-56q0 29 8 56t29 49
q16 16 38.5 25t49.5 9q61 0 91 -32q18 -18 26.5 -43t8.5 -63v-379h-54zM237 246h-56q-20 0 -34 -5t-28 -17q-13 -13 -20 -34.5t-7 -47.5q0 -46 17.5 -73t53.5 -27q35 0 54.5 26t19.5 66v112zM151 586l-75 130h58l66 -130h-49z" />
    <glyph glyph-name="aacute" unicode="&#xe1;" horiz-adv-x="352" 
d="M240 0v46q-5 -11 -13 -20t-15 -14q-12 -9 -26 -14.5t-35 -5.5q-48 0 -81 34q-14 15 -23.5 44t-9.5 71q0 36 10.5 65.5t32.5 49.5q19 17 42 25.5t58 8.5h58v91q0 42 -17.5 64.5t-52.5 22.5q-15 0 -26.5 -5.5t-19.5 -13.5q-12 -13 -17.5 -29t-5.5 -42h-56q0 29 7.5 56
t29.5 49q16 16 38 25t50 9q61 0 91 -32q17 -18 26 -43t9 -63v-379h-54zM238 246h-56q-20 0 -34.5 -5t-27.5 -17q-13 -13 -20 -34.5t-7 -47.5q0 -46 17 -73t54 -27q34 0 54 26t20 66v112zM195 586h-49l65 130h58z" />
    <glyph glyph-name="acircumflex" unicode="&#xe2;" horiz-adv-x="352" 
d="M240 0v46q-5 -11 -13 -20t-15 -14q-12 -9 -26 -14.5t-35 -5.5q-48 0 -81 34q-14 15 -23.5 44t-9.5 71q0 36 10.5 65.5t32.5 49.5q19 17 42 25.5t58 8.5h58v91q0 42 -17.5 64.5t-52.5 22.5q-15 0 -26.5 -5.5t-19.5 -13.5q-12 -13 -17.5 -29t-5.5 -42h-56q0 29 7.5 56
t29.5 49q16 16 38 25t50 9q61 0 91 -32q17 -18 26 -43t9 -63v-379h-54zM238 246h-56q-20 0 -34.5 -5t-27.5 -17q-13 -13 -20 -34.5t-7 -47.5q0 -46 17 -73t54 -27q34 0 54 26t20 66v112zM232 586l-60 92l-60 -92h-51l86 130h50l87 -130h-52z" />
    <glyph glyph-name="atilde" unicode="&#xe3;" horiz-adv-x="352" 
d="M240 0v46q-5 -11 -13 -20t-15 -14q-12 -9 -26 -14.5t-35 -5.5q-48 0 -81 34q-14 15 -23.5 44t-9.5 71q0 36 10.5 65.5t32.5 49.5q19 17 42 25.5t58 8.5h58v91q0 42 -17.5 64.5t-52.5 22.5q-15 0 -26.5 -5.5t-19.5 -13.5q-12 -13 -17.5 -29t-5.5 -42h-56q0 29 7.5 56
t29.5 49q16 16 38 25t50 9q61 0 91 -32q17 -18 26 -43t9 -63v-379h-54zM238 246h-56q-20 0 -34.5 -5t-27.5 -17q-13 -13 -20 -34.5t-7 -47.5q0 -46 17 -73t54 -27q34 0 54 26t20 66v112zM292 635q-26 -26 -41.5 -32t-29.5 -6q-16 0 -28 4.5t-26 12.5q-11 6 -20.5 11t-20.5 5
q-9 0 -18 -3.5t-26 -20.5l-28 29q25 25 41 31.5t30 6.5q17 0 28.5 -4t25.5 -13q11 -7 20.5 -11.5t20.5 -4.5q8 0 17.5 4t25.5 20z" />
    <glyph glyph-name="adieresis" unicode="&#xe4;" horiz-adv-x="352" 
d="M240 0v46q-5 -11 -13 -20t-15 -14q-12 -9 -26 -14.5t-35 -5.5q-48 0 -81 34q-14 15 -23.5 44t-9.5 71q0 36 10.5 65.5t32.5 49.5q19 17 42 25.5t58 8.5h58v91q0 42 -17.5 64.5t-52.5 22.5q-15 0 -26.5 -5.5t-19.5 -13.5q-12 -13 -17.5 -29t-5.5 -42h-56q0 29 7.5 56
t29.5 49q16 16 38 25t50 9q61 0 91 -32q17 -18 26 -43t9 -63v-379h-54zM238 246h-56q-20 0 -34.5 -5t-27.5 -17q-13 -13 -20 -34.5t-7 -47.5q0 -46 17 -73t54 -27q34 0 54 26t20 66v112zM209 606v63h63v-63h-63zM72 606v63h63v-63h-63z" />
    <glyph glyph-name="aring" unicode="&#xe5;" horiz-adv-x="352" 
d="M240 0v46q-5 -11 -13 -20t-15 -14q-12 -9 -26 -14.5t-35 -5.5q-48 0 -81 34q-14 15 -23.5 44t-9.5 71q0 36 10.5 65.5t32.5 49.5q19 17 42 25.5t58 8.5h58v91q0 42 -17.5 64.5t-52.5 22.5q-15 0 -26.5 -5.5t-19.5 -13.5q-12 -13 -17.5 -29t-5.5 -42h-56q0 29 7.5 56
t29.5 49q16 16 38 25t50 9q61 0 91 -32q17 -18 26 -43t9 -63v-379h-54zM263 673q0 -38 -26.5 -64.5t-64.5 -26.5t-64.5 26.5t-26.5 64.5t26.5 64t64.5 26t64.5 -26t26.5 -64zM238 246h-56q-20 0 -34.5 -5t-27.5 -17q-13 -13 -20 -34.5t-7 -47.5q0 -46 17 -73t54 -27
q34 0 54 26t20 66v112zM225 673q0 22 -15.5 37t-37.5 15t-37 -15t-15 -37t15 -37.5t37 -15.5t37.5 15.5t15.5 37.5z" />
    <glyph glyph-name="ae" unicode="&#xe6;" horiz-adv-x="544" 
d="M294 246q0 -78 4.5 -119.5t21.5 -61.5q8 -10 21.5 -16.5t30.5 -6.5q32 0 51 20q22 23 22 72h55q-1 -37 -9 -62t-28 -45q-17 -17 -41 -26t-50 -9t-47 8t-36 22q-10 8 -18 20.5t-13 24.5q-7 -16 -16 -30t-20 -22q-13 -11 -30.5 -17t-40.5 -6q-48 0 -81 34q-14 15 -23.5 44
t-9.5 71q0 36 10.5 65.5t32.5 49.5q19 17 42 25.5t58 8.5h58v91q0 42 -17.5 64.5t-52.5 22.5q-30 0 -47 -19q-12 -13 -17 -29.5t-5 -41.5h-56q0 29 7.5 56t29.5 49q16 16 38 25t50 9q54 0 84 -28q11 -12 19 -25q7 12 14 19q15 16 36.5 25t48.5 9q57 0 91 -37
q27 -29 34 -85.5t7 -148.5h-208zM238 246h-56q-20 0 -34.5 -5t-27.5 -17q-13 -13 -20 -34.5t-7 -47.5q0 -46 17 -73t54 -27q34 0 54 26t20 66v112zM446 291q-1 65 -6 100.5t-20 52.5q-8 10 -20.5 16.5t-29.5 6.5t-29.5 -6.5t-20.5 -16.5q-15 -17 -20 -52.5t-6 -100.5h152z
" />
    <glyph glyph-name="ccedilla" unicode="&#xe7;" horiz-adv-x="340" 
d="M303 134q-1 -36 -9 -62.5t-27 -46.5q-32 -33 -90 -33q-29 0 -53 10t-41 30q-23 28 -30.5 80t-7.5 142t7.5 142t30.5 80q17 20 41 30.5t53 10.5t51 -7t39 -24q23 -23 29 -52t7 -60h-55q0 19 -3 38t-17 34q-10 11 -21.5 16t-28.5 5t-30.5 -6.5t-21.5 -16.5
q-17 -21 -21 -64.5t-4 -125.5t4 -125t21 -64q8 -10 21.5 -16.5t30.5 -6.5q29 0 49 20q14 14 17.5 31.5t3.5 40.5h55zM163 -170h-53l53 133h45z" />
    <glyph glyph-name="egrave" unicode="&#xe8;" 
d="M137 246q0 -78 4.5 -119.5t21.5 -61.5q8 -10 21 -16.5t30 -6.5q32 0 51 20q23 25 23 72h55q-1 -37 -9 -62t-28 -45q-17 -17 -41.5 -26t-50.5 -9q-58 0 -92 37q-26 27 -33.5 80t-7.5 145t7.5 145.5t33.5 80.5q34 37 91 37t91 -37q27 -29 33.5 -85.5t6.5 -148.5h-207z
M288 291q-1 65 -5.5 100.5t-19.5 52.5q-8 10 -20.5 16.5t-29.5 6.5t-30 -6.5t-21 -16.5q-15 -17 -19.5 -52.5t-5.5 -100.5h151zM191 586l-75 130h58l66 -130h-49z" />
    <glyph glyph-name="eacute" unicode="&#xe9;" horiz-adv-x="349" 
d="M101 246q0 -78 4.5 -119.5t21.5 -61.5q8 -10 21 -16.5t30 -6.5q32 0 51 20q23 25 23 72h55q-1 -37 -9 -62t-28 -45q-17 -17 -41.5 -26t-50.5 -9q-58 0 -92 37q-26 27 -33.5 80t-7.5 145t7.5 145.5t33.5 80.5q34 37 91 37t91 -37q27 -29 33.5 -85.5t6.5 -148.5h-207z
M252 291q-1 65 -5.5 100.5t-19.5 52.5q-8 10 -20.5 16.5t-29.5 6.5t-30 -6.5t-21 -16.5q-15 -17 -19.5 -52.5t-5.5 -100.5h151zM199 586h-49l65 130h58z" />
    <glyph glyph-name="ecircumflex" unicode="&#xea;" horiz-adv-x="349" 
d="M101 246q0 -78 4.5 -119.5t21.5 -61.5q8 -10 21 -16.5t30 -6.5q32 0 51 20q23 25 23 72h55q-1 -37 -9 -62t-28 -45q-17 -17 -41.5 -26t-50.5 -9q-58 0 -92 37q-26 27 -33.5 80t-7.5 145t7.5 145.5t33.5 80.5q34 37 91 37t91 -37q27 -29 33.5 -85.5t6.5 -148.5h-207z
M252 291q-1 65 -5.5 100.5t-19.5 52.5q-8 10 -20.5 16.5t-29.5 6.5t-30 -6.5t-21 -16.5q-15 -17 -19.5 -52.5t-5.5 -100.5h151zM237 586l-60 92l-60 -92h-51l86 130h50l87 -130h-52z" />
    <glyph glyph-name="edieresis" unicode="&#xeb;" horiz-adv-x="349" 
d="M101 246q0 -78 4.5 -119.5t21.5 -61.5q8 -10 21 -16.5t30 -6.5q32 0 51 20q23 25 23 72h55q-1 -37 -9 -62t-28 -45q-17 -17 -41.5 -26t-50.5 -9q-58 0 -92 37q-26 27 -33.5 80t-7.5 145t7.5 145.5t33.5 80.5q34 37 91 37t91 -37q27 -29 33.5 -85.5t6.5 -148.5h-207z
M252 291q-1 65 -5.5 100.5t-19.5 52.5q-8 10 -20.5 16.5t-29.5 6.5t-30 -6.5t-21 -16.5q-15 -17 -19.5 -52.5t-5.5 -100.5h151zM214 606v63h63v-63h-63zM77 606v63h63v-63h-63z" />
    <glyph glyph-name="igrave" unicode="&#xec;" horiz-adv-x="181" 
d="M63 0v509h56v-509h-56zM70 586l-75 130h58l66 -130h-49z" />
    <glyph glyph-name="iacute" unicode="&#xed;" horiz-adv-x="181" 
d="M63 0v509h56v-509h-56zM112 586h-49l66 130h58z" />
    <glyph glyph-name="icircumflex" unicode="&#xee;" horiz-adv-x="181" 
d="M63 0v509h56v-509h-56zM150 586l-60 92l-59 -92h-52l86 130h50l87 -130h-52z" />
    <glyph glyph-name="idieresis" unicode="&#xef;" horiz-adv-x="181" 
d="M63 0v509h56v-509h-56zM-10 606v63h63v-63h-63zM128 606v63h63v-63h-63z" />
    <glyph glyph-name="eth" unicode="&#xf0;" horiz-adv-x="355" 
d="M309 249q0 -89 -7.5 -140t-30.5 -78q-33 -39 -94 -39t-94 39q-23 27 -30.5 78t-7.5 140q0 47 1.5 82.5t6 62t11.5 45t19 31.5q32 35 85 35q14 0 28.5 -3t26.5 -11l-32 91h-82v44h67l-33 86h57l32 -86h72v-44h-57l39 -115q6 -18 10.5 -38t7 -45t4 -58t1.5 -77zM253 250
q0 80 -4 122.5t-21 62.5q-8 10 -21 16t-30 6t-29.5 -6t-20.5 -16q-17 -20 -21.5 -62.5t-4.5 -122.5t4.5 -123t21.5 -63q8 -10 20.5 -16t29.5 -6t30 6t21 16q17 20 21 63t4 123z" />
    <glyph glyph-name="ntilde" unicode="&#xf1;" horiz-adv-x="373" 
d="M259 0v383q0 42 -20.5 62.5t-49.5 20.5t-50 -20.5t-21 -62.5v-383h-56v509h55v-41q5 8 13.5 17t15.5 14q26 18 58 18q26 0 45 -9t35 -26q15 -16 23 -39t8 -61v-382h-56zM310 635q-26 -26 -41.5 -32t-29.5 -6q-16 0 -28 4.5t-26 12.5q-11 6 -20.5 11t-20.5 5
q-9 0 -18 -3.5t-26 -20.5l-28 29q25 25 41 31.5t30 6.5q17 0 28.5 -4t25.5 -13q11 -7 20.5 -11.5t20.5 -4.5q8 0 17.5 4t25.5 20z" />
    <glyph glyph-name="ograve" unicode="&#xf2;" 
d="M345 254q0 -90 -7.5 -142t-30.5 -80q-33 -40 -94 -40t-94 40q-23 28 -30.5 80t-7.5 142t7.5 142t30.5 80q33 41 94 41t94 -41q23 -28 30.5 -80t7.5 -142zM289 254q0 82 -4.5 125.5t-21.5 64.5q-8 10 -20.5 16.5t-29.5 6.5t-30 -6.5t-21 -16.5q-17 -21 -21 -64.5
t-4 -125.5t4 -125t21 -64q8 -10 21 -16.5t30 -6.5t29.5 6.5t20.5 16.5q17 21 21.5 64t4.5 125zM182 586l-75 130h58l66 -130h-49z" />
    <glyph glyph-name="oacute" unicode="&#xf3;" horiz-adv-x="353" 
d="M309 254q0 -90 -7.5 -142t-30.5 -80q-33 -40 -94 -40t-94 40q-23 28 -30.5 80t-7.5 142t7.5 142t30.5 80q33 41 94 41t94 -41q23 -28 30.5 -80t7.5 -142zM253 254q0 82 -4.5 125.5t-21.5 64.5q-8 10 -20.5 16.5t-29.5 6.5t-30 -6.5t-21 -16.5q-17 -21 -21 -64.5
t-4 -125.5t4 -125t21 -64q8 -10 21 -16.5t30 -6.5t29.5 6.5t20.5 16.5q17 21 21.5 64t4.5 125zM199 586h-49l65 130h58z" />
    <glyph glyph-name="ocircumflex" unicode="&#xf4;" horiz-adv-x="353" 
d="M309 254q0 -90 -7.5 -142t-30.5 -80q-33 -40 -94 -40t-94 40q-23 28 -30.5 80t-7.5 142t7.5 142t30.5 80q33 41 94 41t94 -41q23 -28 30.5 -80t7.5 -142zM253 254q0 82 -4.5 125.5t-21.5 64.5q-8 10 -20.5 16.5t-29.5 6.5t-30 -6.5t-21 -16.5q-17 -21 -21 -64.5
t-4 -125.5t4 -125t21 -64q8 -10 21 -16.5t30 -6.5t29.5 6.5t20.5 16.5q17 21 21.5 64t4.5 125zM237 586l-60 92l-60 -92h-51l86 130h50l87 -130h-52z" />
    <glyph glyph-name="otilde" unicode="&#xf5;" horiz-adv-x="353" 
d="M309 254q0 -90 -7.5 -142t-30.5 -80q-33 -40 -94 -40t-94 40q-23 28 -30.5 80t-7.5 142t7.5 142t30.5 80q33 41 94 41t94 -41q23 -28 30.5 -80t7.5 -142zM253 254q0 82 -4.5 125.5t-21.5 64.5q-8 10 -20.5 16.5t-29.5 6.5t-30 -6.5t-21 -16.5q-17 -21 -21 -64.5
t-4 -125.5t4 -125t21 -64q8 -10 21 -16.5t30 -6.5t29.5 6.5t20.5 16.5q17 21 21.5 64t4.5 125zM297 635q-26 -26 -41.5 -32t-29.5 -6q-16 0 -28 4.5t-26 12.5q-11 6 -20.5 11t-20.5 5q-9 0 -18 -3.5t-26 -20.5l-28 29q25 25 41 31.5t30 6.5q17 0 28.5 -4t25.5 -13
q11 -7 20.5 -11.5t20.5 -4.5q8 0 17.5 4t25.5 20z" />
    <glyph glyph-name="odieresis" unicode="&#xf6;" horiz-adv-x="353" 
d="M309 254q0 -90 -7.5 -142t-30.5 -80q-33 -40 -94 -40t-94 40q-23 28 -30.5 80t-7.5 142t7.5 142t30.5 80q33 41 94 41t94 -41q23 -28 30.5 -80t7.5 -142zM253 254q0 82 -4.5 125.5t-21.5 64.5q-8 10 -20.5 16.5t-29.5 6.5t-30 -6.5t-21 -16.5q-17 -21 -21 -64.5
t-4 -125.5t4 -125t21 -64q8 -10 21 -16.5t30 -6.5t29.5 6.5t20.5 16.5q17 21 21.5 64t4.5 125zM214 606v63h63v-63h-63zM77 606v63h63v-63h-63z" />
    <glyph glyph-name="divide" unicode="&#xf7;" horiz-adv-x="431" 
d="M49 248v53h334v-53h-334zM179 89v76h75v-76h-75zM179 384v75h75v-75h-75z" />
    <glyph glyph-name="oslash" unicode="&#xf8;" horiz-adv-x="347" 
d="M279 466q18 -29 24 -80t6 -132q0 -90 -7.5 -142t-30.5 -80q-33 -40 -94 -40q-42 0 -69 18l-20 -54h-46l33 87q-18 29 -24 79.5t-6 131.5q0 90 7.5 142t30.5 80q33 41 94 41q21 0 37.5 -5t30.5 -14l20 55h46zM226 447q-8 9 -20.5 15t-28.5 6q-33 0 -51 -23
q-17 -21 -21 -65t-4 -126q0 -49 1.5 -82t6.5 -53zM253 254q0 49 -1.5 82.5t-6.5 53.5l-117 -329q18 -20 49 -20q32 0 50 23q17 21 21.5 64.5t4.5 125.5z" />
    <glyph glyph-name="ugrave" unicode="&#xf9;" horiz-adv-x="373" 
d="M256 0v41q-5 -8 -13.5 -17t-15.5 -14q-26 -18 -58 -18q-26 0 -45 8.5t-35 25.5q-15 16 -23 39.5t-8 61.5v382h56v-383q0 -42 20.5 -62.5t49.5 -20.5t50 20.5t21 62.5v383h56v-509h-55zM168 586l-75 130h58l66 -130h-49z" />
    <glyph glyph-name="uacute" unicode="&#xfa;" horiz-adv-x="373" 
d="M256 0v41q-5 -8 -13.5 -17t-15.5 -14q-26 -18 -58 -18q-26 0 -45 8.5t-35 25.5q-15 16 -23 39.5t-8 61.5v382h56v-383q0 -42 20.5 -62.5t49.5 -20.5t50 20.5t21 62.5v383h56v-509h-55zM215 586h-49l65 130h58z" />
    <glyph glyph-name="ucircumflex" unicode="&#xfb;" horiz-adv-x="373" 
d="M256 0v41q-5 -8 -13.5 -17t-15.5 -14q-26 -18 -58 -18q-26 0 -45 8.5t-35 25.5q-15 16 -23 39.5t-8 61.5v382h56v-383q0 -42 20.5 -62.5t49.5 -20.5t50 20.5t21 62.5v383h56v-509h-55zM250 586l-60 92l-60 -92h-51l86 130h50l87 -130h-52z" />
    <glyph glyph-name="udieresis" unicode="&#xfc;" horiz-adv-x="373" 
d="M256 0v41q-5 -8 -13.5 -17t-15.5 -14q-26 -18 -58 -18q-26 0 -45 8.5t-35 25.5q-15 16 -23 39.5t-8 61.5v382h56v-383q0 -42 20.5 -62.5t49.5 -20.5t50 20.5t21 62.5v383h56v-509h-55zM90 606v63h63v-63h-63zM227 606v63h63v-63h-63z" />
    <glyph glyph-name="yacute" unicode="&#xfd;" horiz-adv-x="308" 
d="M157 -99q-14 -59 -52 -81.5t-96 -22.5v50q42 0 63.5 16.5t29.5 48.5l23 90l-121 507h62l87 -420l87 420h61zM180 586h-49l65 130h58z" />
    <glyph glyph-name="thorn" unicode="&#xfe;" horiz-adv-x="366" 
d="M321 254q0 -95 -7.5 -147t-30.5 -79q-14 -17 -33.5 -26.5t-45.5 -9.5q-33 0 -58 16q-8 5 -15 13.5t-12 16.5v-241h-56v915h55v-244q4 8 13 17t15 14q25 18 58 18q47 0 79 -36q23 -27 30.5 -79.5t7.5 -147.5zM265 254q0 82 -4 125.5t-21 64.5q-8 10 -21 16.5t-28 6.5
q-28 0 -49 -19q-23 -23 -23 -70v-247q0 -48 23 -71q19 -18 49 -18q15 0 28 6.5t21 16.5q17 21 21 64t4 125z" />
    <glyph glyph-name="ydieresis" unicode="&#xff;" horiz-adv-x="308" 
d="M157 -99q-14 -59 -52 -81.5t-96 -22.5v50q42 0 63.5 16.5t29.5 48.5l23 90l-121 507h62l87 -420l87 420h61zM58 606v63h63v-63h-63zM195 606v63h63v-63h-63z" />
    <glyph glyph-name="dotlessi" unicode="&#x131;" horiz-adv-x="181" 
d="M63 0v509h56v-509h-56z" />
    <glyph glyph-name="Lslash" unicode="&#x141;" horiz-adv-x="341" 
d="M70 0v294l-50 -47v64l50 48v353h59v-300l95 90v-64l-95 -91v-294h189v-53h-248z" />
    <glyph glyph-name="lslash" unicode="&#x142;" horiz-adv-x="238" 
d="M218 0q-29 0 -54.5 6t-46.5 26q-18 17 -28 41.5t-10 62.5v184l-62 -64v63l62 64v329h56v-276l63 66v-63l-63 -66v-237q0 -42 20.5 -64t62.5 -22v-50v0z" />
    <glyph glyph-name="OE" unicode="&#x152;" horiz-adv-x="602" 
d="M310 0v40q-34 -48 -101 -48q-33 0 -60 11t-45 31q-16 18 -26 39.5t-15 57t-7 89.5t-2 136t2 136t7 89.5t15 57t26 39.5q18 20 45 31t60 11q68 0 101 -48v40h246v-53h-190v-276h164v-53h-164v-277h190v-53h-246zM308 356q0 78 -1 127.5t-5 80t-10.5 47.5t-17.5 30
q-23 26 -64 26q-22 0 -37 -7t-26 -19q-11 -13 -17.5 -30t-10.5 -47.5t-5 -80t-1 -127.5t1 -127.5t5 -80t10.5 -47.5t17.5 -30q11 -12 26 -19t37 -7t37.5 7t26.5 19q11 13 17.5 30t10.5 47.5t5 80t1 127.5z" />
    <glyph glyph-name="oe" unicode="&#x153;" horiz-adv-x="559" 
d="M309 246q0 -78 4.5 -119.5t21.5 -61.5q8 -10 21 -16.5t30 -6.5q32 0 51 20q23 25 23 72h55q-1 -37 -9.5 -62t-28.5 -45q-17 -17 -41 -26t-50 -9q-28 0 -49.5 9.5t-36.5 24.5q-12 12 -19 29q-7 -17 -19 -29q-15 -15 -36 -24.5t-49 -9.5q-61 0 -94 40q-23 28 -30.5 80
t-7.5 142t7.5 142t30.5 80q33 41 94 41q28 0 49.5 -9t36.5 -25q11 -13 18 -28q7 16 19 28q15 15 36 24.5t48 9.5q57 0 91 -37q27 -29 34 -85.5t7 -148.5h-207zM253 254q0 82 -4.5 125.5t-21.5 64.5q-8 10 -20.5 16.5t-29.5 6.5t-30 -6.5t-21 -16.5q-17 -21 -21 -64.5
t-4 -125.5t4 -125t21 -64q8 -10 21 -16.5t30 -6.5t29.5 6.5t20.5 16.5q17 21 21.5 64t4.5 125zM460 291q-1 65 -5.5 100.5t-19.5 52.5q-8 10 -21 16.5t-30 6.5t-29.5 -6.5t-20.5 -16.5q-15 -17 -19.5 -52.5t-5.5 -100.5h151z" />
    <glyph glyph-name="Scaron" unicode="&#x160;" horiz-adv-x="396" 
d="M350 186q0 -57 -10 -93.5t-34 -60.5q-18 -18 -45.5 -28t-65.5 -10q-74 0 -112 38q-12 12 -20 25.5t-13 30.5t-7 39t-2 51h59q0 -42 5.5 -65.5t22.5 -40.5q24 -24 67 -24q25 0 41 6.5t27 17.5q17 19 22.5 44.5t5.5 67.5q0 33 -3 56.5t-11.5 40.5t-23 28.5t-37.5 20.5
l-76 31q-27 11 -45.5 25.5t-29 35t-15 49t-4.5 68.5q0 46 12 82t37 59q40 38 104 38q68 0 107 -39q26 -26 34.5 -58.5t8.5 -79.5h-59q0 34 -5.5 57t-21.5 41q-11 12 -26.5 19t-38.5 7q-21 0 -36 -6t-26 -17q-17 -17 -24 -43t-7 -59q0 -31 3 -51.5t11 -35.5t23.5 -25.5
t39.5 -20.5l76 -31q29 -12 47 -28.5t28 -39.5t13.5 -53t3.5 -69zM229 758h-52l-86 129h52l60 -91l60 91h52z" />
    <glyph glyph-name="scaron" unicode="&#x161;" horiz-adv-x="336" 
d="M303 130q0 -30 -11 -55.5t-29 -43.5q-39 -39 -97 -39q-57 0 -93 36q-22 23 -31 50.5t-9 59.5h56q0 -24 6 -42.5t20 -32.5q21 -21 51 -21q35 0 58 23t23 63q0 33 -14 55q-16 25 -51 44l-64 35q-24 14 -41 30t-25 30q-14 27 -14 64q0 29 11 53.5t29 42.5q35 35 91 35
q57 0 91 -34q37 -37 37 -110h-56q0 29 -5 45t-17 29q-11 11 -23.5 15.5t-26.5 4.5q-34 0 -53 -19q-12 -11 -17 -27.5t-5 -32.5q0 -27 10 -44q5 -10 17.5 -19t29.5 -19l63 -36q49 -27 69 -60q11 -17 15.5 -37.5t4.5 -42.5zM199 580h-52l-86 129h52l60 -91l60 91h52z" />
    <glyph glyph-name="Ydieresis" unicode="&#x178;" horiz-adv-x="315" 
d="M187 298v-298h-59v298l-125 414h65l89 -326l90 326h65zM60 784v63h63v-63h-63zM197 784v63h63v-63h-63z" />
    <glyph glyph-name="Zcaron" unicode="&#x17d;" horiz-adv-x="324" 
d="M30 0v46l203 613h-189v53h250v-46l-202 -613h202v-53h-264zM192 758h-52l-86 129h52l60 -91l60 91h52z" />
    <glyph glyph-name="zcaron" unicode="&#x17e;" horiz-adv-x="276" 
d="M22 0v44l172 415h-162v50h223v-44l-172 -415h172v-50h-233zM170 580h-52l-87 129h52l60 -91l60 91h53z" />
    <glyph glyph-name="florin" unicode="&#x192;" horiz-adv-x="337" 
d="M297 664q-35 0 -59.5 -20.5t-32.5 -60.5l-37 -201h83v-44h-91l-104 -542h-56l104 542h-57v44h65l37 202q12 64 52 97t100 33h15v-50h-19z" />
    <glyph glyph-name="circumflex" unicode="&#x2c6;" 
d="M237 586l-60 92l-60 -92h-51l86 130h50l87 -130h-52z" />
    <glyph glyph-name="caron" unicode="&#x2c7;" 
d="M203 580h-52l-86 129h52l60 -91l60 91h52z" />
    <glyph glyph-name="breve" unicode="&#x2d8;" 
d="M287 697q-9 -105 -110 -105t-110 105h45q7 -60 65 -60q57 0 65 60h45v0z" />
    <glyph glyph-name="dotaccent" unicode="&#x2d9;" 
d="M146 631v63h63v-63h-63z" />
    <glyph glyph-name="ring" unicode="&#x2da;" 
d="M268 673q0 -38 -26.5 -64.5t-64.5 -26.5t-64.5 26.5t-26.5 64.5t26.5 64t64.5 26t64.5 -26t26.5 -64zM230 673q0 22 -15.5 37t-37.5 15t-37 -15t-15 -37t15 -37.5t37 -15.5t37.5 15.5t15.5 37.5z" />
    <glyph glyph-name="ogonek" unicode="&#x2db;" 
d="M192 -170l-46 133h46l53 -133h-53z" />
    <glyph glyph-name="tilde" unicode="&#x2dc;" 
d="M297 635q-26 -26 -41.5 -32t-29.5 -6q-16 0 -28 4.5t-26 12.5q-11 6 -20.5 11t-20.5 5q-9 0 -18 -3.5t-26 -20.5l-28 29q25 25 41 31.5t30 6.5q17 0 28.5 -4t25.5 -13q11 -7 20.5 -11.5t20.5 -4.5q8 0 17.5 4t25.5 20l29 -29v0z" />
    <glyph glyph-name="hungarumlaut" unicode="&#x2dd;" 
d="M257 580h-49l58 129h60zM124 580h-49l58 129h60z" />
    <glyph glyph-name="endash" unicode="&#x2013;" horiz-adv-x="431" 
d="M49 251v53h334v-53h-334z" />
    <glyph glyph-name="emdash" unicode="&#x2014;" horiz-adv-x="671" 
d="M55 251v53h561v-53h-561z" />
    <glyph glyph-name="quoteleft" unicode="&#x2018;" horiz-adv-x="184" 
d="M58 637v75l69 51v-126h-69z" />
    <glyph glyph-name="quoteright" unicode="&#x2019;" horiz-adv-x="184" 
d="M58 586v126h69v-75z" />
    <glyph glyph-name="quotesinglbase" unicode="&#x201a;" horiz-adv-x="184" 
d="M58 -51v126h69v-75z" />
    <glyph glyph-name="quotedblleft" unicode="&#x201c;" horiz-adv-x="328" 
d="M202 637v75l69 51v-126h-69zM58 637v75l69 51v-126h-69z" />
    <glyph glyph-name="quotedblright" unicode="&#x201d;" horiz-adv-x="328" 
d="M202 586v126h69v-75zM58 586v126h69v-75z" />
    <glyph glyph-name="quotedblbase" unicode="&#x201e;" horiz-adv-x="328" 
d="M202 -51v126h69v-75zM58 -51v126h69v-75z" />
    <glyph glyph-name="dagger" unicode="&#x2020;" horiz-adv-x="437" 
d="M245 460v-460h-54v460h-142v49h142v203h54v-203h143v-49h-143z" />
    <glyph glyph-name="daggerdbl" unicode="&#x2021;" horiz-adv-x="437" 
d="M245 0v-203h-54v203h-142v48h142v412h-142v49h142v203h54v-203h143v-49h-143v-412h143v-48h-143z" />
    <glyph glyph-name="bullet" unicode="&#x2022;" horiz-adv-x="464" 
d="M395 334q0 -34 -13 -63.5t-35 -51.5t-51.5 -35t-63.5 -13t-63.5 13t-51.5 35t-35 51.5t-13 63.5t13 63.5t35 51.5t51.5 35t63.5 13t63.5 -13t51.5 -35t35 -51.5t13 -63.5z" />
    <glyph glyph-name="ellipsis" unicode="&#x2026;" horiz-adv-x="548" 
d="M411 0v75h76v-75h-76zM62 0v75h75v-75h-75zM237 0v75h75v-75h-75z" />
    <glyph glyph-name="perthousand" unicode="&#x2030;" horiz-adv-x="890" 
d="M252 446q0 -46 -28 -73t-71 -27t-70.5 27t-27.5 73v175q0 46 27.5 72.5t70.5 26.5t71 -26.5t28 -72.5v-175zM835 92q0 -46 -28 -73t-71 -27t-70.5 27t-27.5 73v174q0 46 27.5 73t70.5 27t71 -27t28 -73v-174zM562 92q0 -46 -27.5 -73t-70.5 -27t-70.5 27t-27.5 73v174
q0 46 27.5 73t70.5 27t70.5 -27t27.5 -73v-174zM208 0h-47l248 712h47zM514 266q0 26 -13 41.5t-37 15.5t-37 -15.5t-13 -41.5v-174q0 -26 13 -41.5t37 -15.5t37 15.5t13 41.5v174zM786 266q0 26 -13 41.5t-37 15.5t-36.5 -15.5t-12.5 -41.5v-174q0 -26 12.5 -41.5
t36.5 -15.5t37 15.5t13 41.5v174zM203 620q0 26 -13 41.5t-37 15.5t-36.5 -15.5t-12.5 -41.5v-174q0 -26 12.5 -41.5t36.5 -15.5t37 15.5t13 41.5v174z" />
    <glyph glyph-name="guilsinglleft" unicode="&#x2039;" horiz-adv-x="219" 
d="M29 268l135 210v-96l-75 -114l75 -115v-95z" />
    <glyph glyph-name="guilsinglright" unicode="&#x203a;" horiz-adv-x="219" 
d="M55 58v95l76 115l-76 114v96l136 -210z" />
    <glyph glyph-name="fraction" unicode="&#x2044;" horiz-adv-x="92" 
d="M-54 0h-47l247 712h47z" />
    <glyph glyph-name="Euro" unicode="&#x20ac;" horiz-adv-x="448" 
d="M402 163q-1 -43 -12.5 -78.5t-37.5 -58.5q-18 -16 -42 -25t-56 -9q-35 0 -61.5 11t-44.5 31q-14 14 -23 30.5t-15 41.5t-8.5 62.5t-3.5 93.5h-63v44h63v100h-63v44h63q1 56 3.5 93.5t8.5 62.5t15 41.5t23 30.5q18 20 44.5 31t61.5 11q34 0 59 -10t43 -28
q23 -23 33.5 -57.5t11.5 -75.5h-59q0 22 -4 43.5t-13.5 38t-26.5 26.5t-44 10q-41 0 -64 -26q-9 -11 -15 -23t-9.5 -32t-5 -52.5t-2.5 -83.5h133v-44h-134v-100h134v-44h-133q1 -51 2.5 -83.5t5.5 -52.5t10 -32.5t15 -22.5q11 -12 26 -19t37 -7q27 0 44 10t27 26.5t14 38
t4 43.5h59v0z" />
    <glyph glyph-name="trademark" unicode="&#x2122;" horiz-adv-x="602" 
d="M501 282v323l-73 -206h-31l-74 199v-316h-43v430h42l90 -241l90 241h42v-430h-43zM149 673v-391h-42v391h-74v39h190v-39h-74z" />
    <glyph glyph-name="minus" unicode="&#x2212;" horiz-adv-x="301" 
d="M55 251v53h191v-53h-191z" />
    <glyph glyph-name="fi" unicode="&#xfb01;" horiz-adv-x="399" 
d="M134 465v-465h-56v465h-62v44h62v69q0 69 38 104q22 20 49 26t56 6v-50q-87 0 -87 -86v-69h87v-44h-87zM281 0v509h56v-509h-56zM273 626v72h72v-72h-72z" />
    <glyph glyph-name="fl" unicode="&#xfb02;" horiz-adv-x="435" 
d="M134 465v-465h-56v465h-62v44h62v69q0 69 38 104q22 20 49 26t56 6v-50q-87 0 -87 -86v-69h87v-44h-87zM420 0q-29 0 -54.5 6t-46.5 26q-18 17 -28 41.5t-10 62.5v576h56v-576q0 -42 20.5 -64t62.5 -22v-50z" />
  </font>
</defs>
</svg>
